<svg width="309" height="96" viewBox="0 0 309 96" fill="none" xmlns="http://www.w3.org/2000/svg">
<path style="mix-blend-mode:screen" opacity="0.5" fill-rule="evenodd" clip-rule="evenodd" d="M261.677 2.81848C190.149 -0.0519603 118.155 -0.0519603 46.6267 2.81848C34.35 3.03758 22.6373 8.01203 13.955 16.6944C5.27266 25.3767 0.298203 37.0894 0.0791016 49.3661C0.0791016 75.2777 21.4134 92.2676 46.6267 93.2761C118.155 96.1466 190.149 96.1466 261.677 93.2761C287.045 92.2676 308.225 75.2777 308.225 49.3661C308.005 37.0894 303.031 25.3767 294.349 16.6944C285.666 8.01203 273.954 3.03758 261.677 2.81848Z" fill="url(#paint0_linear_486_447)"/>
<path style="mix-blend-mode:screen" opacity="0.2" fill-rule="evenodd" clip-rule="evenodd" d="M261.599 5.06822C190.019 2.17192 118.387 2.17192 46.7037 5.06822C40.1875 5.30549 33.7876 6.86528 27.8929 9.6526C21.9982 12.4399 16.7319 16.3967 12.4137 21.2824C10.9914 22.9153 9.99824 24.8768 9.52417 26.9898C9.0501 29.1028 9.10996 31.3007 9.69842 33.3848C10.223 35.4905 11.2743 37.4282 12.7535 39.016C14.2327 40.6037 16.0912 41.7894 18.1545 42.4616C52.2119 54.0985 96.6649 60.2272 152.212 60.2272C209.543 60.2272 254.927 53.7106 289.372 41.3755C291.453 40.6781 293.318 39.4543 294.786 37.8231C296.255 36.1918 297.276 34.2085 297.751 32.0659C298.3 29.9328 298.296 27.6948 297.739 25.5636C297.183 23.4324 296.092 21.4783 294.57 19.8859C285.919 10.8545 274.096 5.5408 261.599 5.06822Z" fill="url(#paint1_linear_486_447)"/>
<path style="mix-blend-mode:screen" fill-rule="evenodd" clip-rule="evenodd" d="M36.3858 18.3343C29.3261 19.6531 23.3525 20.6617 23.3525 17.093C23.3525 13.5243 31.1104 8.71442 37.8599 8.48168C44.6093 8.24894 46.8591 10.4988 46.8591 13.059C46.8591 15.6191 41.4285 17.4033 36.3858 18.3343ZM107.604 15.619C91.3245 16.1095 75.0308 15.6433 58.8064 14.2226C54.6947 13.7571 52.7552 8.79203 58.8064 7.55076C75.7963 4.05969 177.27 4.36997 177.27 10.4212C176.96 14.145 124.904 15.3862 107.604 15.619Z" fill="url(#paint2_radial_486_447)"/>
<defs>
<linearGradient id="paint0_linear_486_447" x1="154.152" y1="95.7587" x2="154.152" y2="0.956567" gradientUnits="userSpaceOnUse">
<stop offset="0.02"/>
<stop offset="1" stop-color="#FF5AA3"/>
</linearGradient>
<linearGradient id="paint1_linear_486_447" x1="153.686" y1="60.2272" x2="153.686" y2="2.896" gradientUnits="userSpaceOnUse">
<stop offset="0.02" stop-color="#150000"/>
<stop offset="0.98" stop-color="#FF4C9F"/>
</linearGradient>
<radialGradient id="paint2_radial_486_447" cx="0" cy="0" r="1" gradientUnits="userSpaceOnUse" gradientTransform="translate(83.8645 -17.2747) scale(150.039 150.039)">
<stop offset="0.01" stop-color="#FF6CEA"/>
<stop offset="0.98" stop-color="#080800"/>
</radialGradient>
</defs>
</svg>
