<svg width="644" height="647" viewBox="0 0 644 647" fill="none" xmlns="http://www.w3.org/2000/svg">
<path d="M321.602 645.186C498.579 645.186 642.047 501.719 642.047 324.742C642.047 147.766 498.579 4.29773 321.602 4.29773C144.626 4.29773 1.1582 147.766 1.1582 324.742C1.1582 501.719 144.626 645.186 321.602 645.186Z" fill="url(#paint0_linear_459_7391)"/>
<path style="mix-blend-mode:screen" d="M624.666 343.121C634.921 342.043 642.347 332.716 641.251 322.289C640.155 311.862 630.953 304.283 620.697 305.361C610.442 306.439 603.016 315.765 604.112 326.193C605.208 336.62 614.41 344.199 624.666 343.121Z" fill="url(#paint1_radial_459_7391)"/>
<path d="M623.825 334.412C629.414 333.824 633.46 328.743 632.863 323.062C632.266 317.381 627.252 313.252 621.663 313.839C616.074 314.426 612.028 319.508 612.625 325.189C613.222 330.87 618.237 334.999 623.825 334.412Z" stroke="#AA6019" stroke-width="11.5404" stroke-miterlimit="10"/>
<path d="M632.829 323.098C633.005 325.095 632.588 327.1 631.629 328.861C630.669 330.622 629.211 332.06 627.437 332.995C625.663 333.93 623.653 334.32 621.658 334.116C619.663 333.912 617.773 333.123 616.225 331.848C614.677 330.573 613.541 328.87 612.958 326.951C612.375 325.032 612.372 322.984 612.95 321.064C613.527 319.144 614.659 317.437 616.203 316.158C617.747 314.879 619.635 314.084 621.63 313.875C624.338 313.613 627.038 314.438 629.138 316.168C631.239 317.897 632.566 320.39 632.829 323.098Z" fill="url(#paint2_radial_459_7391)"/>
<path style="mix-blend-mode:screen" d="M627.641 315.966C628.121 318.159 620.995 321.203 620.293 321.506C618.148 322.42 614.359 324.04 613.34 322.819C612.224 321.477 614.379 316.673 618.177 314.812C621.976 312.952 627.265 314.216 627.641 315.966Z" fill="url(#paint3_radial_459_7391)"/>
<path style="mix-blend-mode:screen" d="M632.353 320.977C632.829 322.498 632.961 324.106 632.738 325.684C632.637 326.358 631.834 331.234 627.251 333.522C623.13 335.58 619.197 333.917 618.692 333.691C616.866 332.867 615.319 331.531 614.239 329.844C616.113 331.004 618.269 331.629 620.472 331.652C622.676 331.675 624.844 331.095 626.741 329.974C631.608 327.012 632.281 321.626 632.353 320.977Z" fill="url(#paint4_radial_459_7391)"/>
<path d="M339.778 31.3071C338.095 35.0832 335.33 38.2753 331.833 40.4798C328.335 42.6843 324.262 43.8022 320.13 43.692C315.997 43.5818 311.99 42.2485 308.614 39.8607C305.239 37.473 302.648 34.138 301.169 30.2776C299.689 26.4171 299.387 22.2046 300.302 18.1728C301.217 14.1409 303.306 10.4709 306.307 7.62666C309.307 4.78245 313.084 2.8919 317.159 2.19406C321.234 1.49623 325.424 2.02248 329.2 3.70624C334.262 5.96381 338.221 10.1399 340.205 15.3159C342.189 20.492 342.035 26.2441 339.778 31.3071Z" fill="#FFFF61"/>
<g style="mix-blend-mode:screen">
<path d="M333.836 28.6624C332.677 31.263 330.772 33.4615 328.364 34.98C325.956 36.4985 323.151 37.2687 320.305 37.1934C317.459 37.1181 314.699 36.2006 312.374 34.5568C310.049 32.9131 308.264 30.6169 307.244 27.9587C306.225 25.3005 306.016 22.3995 306.644 19.6227C307.273 16.8458 308.711 14.3177 310.777 12.358C312.842 10.3983 315.442 9.09506 318.248 8.61296C321.054 8.13086 323.94 8.4916 326.541 9.64956C328.269 10.4187 329.828 11.5206 331.129 12.8925C332.431 14.2643 333.45 15.8792 334.127 17.6448C334.805 19.4104 335.127 21.2922 335.077 23.1826C335.027 25.0731 334.605 26.9351 333.836 28.6624Z" fill="url(#paint5_radial_459_7391)"/>
</g>
<path d="M344.318 32.5141C342.458 36.6908 339.402 40.2224 335.536 42.6622C331.67 45.1021 327.167 46.3406 322.597 46.2211C318.026 46.1017 313.594 44.6296 309.86 41.9911C306.127 39.3526 303.26 35.6662 301.621 31.398C299.983 27.1299 299.647 22.4717 300.656 18.0127C301.665 13.5536 303.974 9.49394 307.29 6.34707C310.607 3.2002 314.782 1.10749 319.288 0.333576C323.793 -0.440339 328.428 0.139296 332.604 1.99921C335.377 3.23345 337.88 5.00186 339.969 7.20344C342.059 9.40502 343.694 11.9966 344.782 14.8303C345.869 17.6639 346.388 20.6841 346.309 23.7183C346.229 26.7525 345.552 29.7414 344.318 32.5141Z" fill="#FFFF61"/>
<g style="mix-blend-mode:screen">
<path d="M337.745 29.5857C336.467 32.4639 334.364 34.8984 331.702 36.5811C329.04 38.2638 325.939 39.1191 322.791 39.0386C319.643 38.9582 316.589 37.9458 314.017 36.1294C311.445 34.313 309.469 31.7743 308.34 28.8346C307.21 25.8949 306.979 22.6863 307.674 19.6149C308.369 16.5434 309.959 13.7472 312.244 11.58C314.529 9.41282 317.405 7.97211 320.509 7.44018C323.613 6.90824 326.805 7.309 329.681 8.59174C333.532 10.3082 336.545 13.4835 338.057 17.42C339.569 21.3564 339.457 25.7321 337.745 29.5857Z" fill="url(#paint6_radial_459_7391)"/>
</g>
<path d="M129.536 120.774C127.676 124.95 124.621 128.48 120.755 130.918C116.89 133.357 112.388 134.594 107.819 134.474C103.25 134.354 98.8193 132.882 95.087 130.244C91.3546 127.606 88.4883 123.921 86.8504 119.654C85.2125 115.387 84.8766 110.731 85.8851 106.273C86.8937 101.815 89.2014 97.7564 92.5165 94.6102C95.8316 91.4639 100.005 89.3712 104.51 88.5968C109.014 87.8224 113.647 88.4011 117.822 90.2596C120.595 91.4938 123.098 93.2622 125.187 95.4638C127.277 97.6654 128.912 100.257 130 103.091C131.088 105.924 131.607 108.945 131.527 111.979C131.447 115.013 130.771 118.002 129.536 120.774Z" fill="#FFFF61"/>
<g style="mix-blend-mode:screen">
<path d="M122.967 117.851C121.687 120.728 119.582 123.16 116.919 124.841C114.256 126.522 111.154 127.375 108.006 127.293C104.858 127.21 101.806 126.196 99.2339 124.379C96.6622 122.562 94.6872 120.023 93.5586 117.083C92.43 114.143 92.1986 110.935 92.8935 107.863C93.5885 104.792 95.1787 101.996 97.4629 99.828C99.7472 97.6604 102.623 96.2189 105.726 95.6858C108.83 95.1526 112.022 95.5518 114.899 96.8328C118.755 98.5513 121.77 101.731 123.283 105.672C124.796 109.613 124.683 113.993 122.967 117.851Z" fill="url(#paint7_radial_459_7391)"/>
</g>
<path style="mix-blend-mode:screen" d="M601.815 228.622C612.071 227.544 619.496 218.217 618.4 207.79C617.304 197.363 608.102 189.784 597.847 190.862C587.591 191.939 580.166 201.266 581.262 211.693C582.358 222.12 591.56 229.7 601.815 228.622Z" fill="url(#paint8_radial_459_7391)"/>
<path d="M600.965 219.913C606.554 219.325 610.6 214.244 610.003 208.563C609.406 202.882 604.391 198.752 598.803 199.34C593.214 199.927 589.168 205.009 589.765 210.69C590.362 216.371 595.376 220.5 600.965 219.913Z" stroke="#AA6019" stroke-width="11.5404" stroke-miterlimit="10"/>
<path d="M609.974 208.626C610.149 210.623 609.731 212.628 608.771 214.388C607.811 216.149 606.353 217.586 604.579 218.52C602.805 219.455 600.794 219.844 598.799 219.639C596.805 219.434 594.915 218.645 593.368 217.37C591.82 216.095 590.684 214.391 590.102 212.473C589.519 210.554 589.517 208.506 590.095 206.586C590.672 204.666 591.804 202.96 593.348 201.681C594.893 200.402 596.781 199.608 598.775 199.398C600.116 199.268 601.47 199.404 602.759 199.797C604.048 200.191 605.246 200.835 606.286 201.691C607.326 202.548 608.187 203.602 608.82 204.792C609.453 205.982 609.845 207.285 609.974 208.626Z" fill="url(#paint9_radial_459_7391)"/>
<path style="mix-blend-mode:screen" d="M604.785 201.471C605.266 203.664 598.144 206.707 597.437 207.005C595.293 207.924 591.504 209.544 590.484 208.318C589.374 206.981 591.528 202.178 595.322 200.312C599.116 198.446 604.41 199.721 604.785 201.471Z" fill="url(#paint10_radial_459_7391)"/>
<path style="mix-blend-mode:screen" d="M609.498 206.481C609.974 208.002 610.106 209.611 609.882 211.189C609.781 211.857 608.978 216.738 604.4 219.027C600.275 221.085 596.341 219.416 595.836 219.195C594.011 218.372 592.463 217.035 591.384 215.348C593.258 216.508 595.414 217.132 597.617 217.154C599.821 217.176 601.989 216.595 603.886 215.473C608.752 212.516 609.425 207.126 609.498 206.481Z" fill="url(#paint11_radial_459_7391)"/>
<path style="mix-blend-mode:screen" d="M45.3788 228.588C55.6342 227.51 63.0595 218.183 61.9636 207.756C60.8676 197.329 51.6655 189.75 41.41 190.828C31.1545 191.905 23.7293 201.232 24.8252 211.659C25.9211 222.086 35.1233 229.666 45.3788 228.588Z" fill="url(#paint12_radial_459_7391)"/>
<path d="M44.5285 219.941C50.1171 219.354 54.1635 214.272 53.5664 208.591C52.9693 202.91 47.9548 198.781 42.3662 199.368C36.7776 199.956 32.7311 205.037 33.3282 210.718C33.9253 216.399 38.9398 220.529 44.5285 219.941Z" stroke="#AA6019" stroke-width="11.5404" stroke-miterlimit="10"/>
<path d="M53.537 208.626C53.7128 210.623 53.2945 212.628 52.3345 214.389C51.3745 216.15 49.9157 217.587 48.1413 218.521C46.3669 219.455 44.3561 219.844 42.3613 219.64C40.3666 219.435 38.4769 218.645 36.9295 217.369C35.3822 216.094 34.2462 214.39 33.6643 212.471C33.0825 210.552 33.0806 208.503 33.659 206.583C34.2373 204.663 35.3701 202.957 36.9151 201.679C38.4601 200.4 40.3484 199.607 42.3428 199.398C43.6838 199.269 45.037 199.405 46.3254 199.799C47.6137 200.193 48.8119 200.836 49.8514 201.693C50.8909 202.55 51.7514 203.603 52.3838 204.793C53.0162 205.983 53.4081 207.285 53.537 208.626Z" fill="url(#paint13_radial_459_7391)"/>
<path style="mix-blend-mode:screen" d="M48.3534 201.471C48.8342 203.664 41.708 206.707 41.0012 207.005C38.8566 207.924 35.0675 209.544 34.0529 208.318C32.9373 206.981 35.0915 202.178 38.8902 200.312C42.689 198.446 47.9735 199.721 48.3534 201.471Z" fill="url(#paint14_radial_459_7391)"/>
<path style="mix-blend-mode:screen" d="M53.061 206.481C53.5403 208.002 53.6717 209.611 53.4457 211.189C53.3495 211.857 52.5465 216.738 47.964 219.027C43.8383 221.085 39.9049 219.416 39.4048 219.195C37.5789 218.372 36.0318 217.035 34.9521 215.348C36.8264 216.508 38.9821 217.132 41.1858 217.154C43.3895 217.176 45.5573 216.595 47.4543 215.473C52.3157 212.516 52.9745 207.126 53.061 206.481Z" fill="url(#paint15_radial_459_7391)"/>
<path style="mix-blend-mode:screen" d="M536.28 130.592C546.536 129.514 553.961 120.188 552.865 109.761C551.769 99.3335 542.567 91.7544 532.311 92.8323C522.056 93.9102 514.631 103.237 515.727 113.664C516.822 124.091 526.025 131.67 536.28 130.592Z" fill="url(#paint16_radial_459_7391)"/>
<path d="M535.42 121.898C541.009 121.31 545.055 116.229 544.458 110.548C543.861 104.867 538.846 100.738 533.258 101.325C527.669 101.912 523.623 106.994 524.22 112.675C524.817 118.356 529.831 122.485 535.42 121.898Z" stroke="#AA6019" stroke-width="11.5404" stroke-miterlimit="10"/>
<path d="M544.435 110.58C544.61 112.578 544.192 114.582 543.232 116.343C542.272 118.103 540.814 119.541 539.04 120.475C537.265 121.409 535.255 121.798 533.26 121.594C531.266 121.389 529.376 120.599 527.829 119.324C526.281 118.049 525.145 116.346 524.563 114.427C523.98 112.508 523.978 110.461 524.555 108.541C525.133 106.621 526.265 104.914 527.809 103.635C529.354 102.356 531.241 101.562 533.236 101.353C534.577 101.223 535.931 101.358 537.22 101.752C538.508 102.145 539.707 102.789 540.747 103.646C541.787 104.503 542.648 105.556 543.281 106.746C543.914 107.936 544.306 109.239 544.435 110.58Z" fill="url(#paint17_radial_459_7391)"/>
<path style="mix-blend-mode:screen" d="M539.251 103.449C539.732 105.642 532.605 108.681 531.899 108.984C529.754 109.902 525.965 111.523 524.95 110.297C523.835 108.96 525.989 104.156 529.788 102.29C533.586 100.425 538.871 101.699 539.251 103.449Z" fill="url(#paint18_radial_459_7391)"/>
<path style="mix-blend-mode:screen" d="M543.958 108.455C544.437 109.977 544.569 111.588 544.343 113.167C544.247 113.836 543.439 118.716 538.861 121C534.736 123.058 530.802 121.395 530.302 121.173C528.474 120.353 526.926 119.016 525.85 117.327C527.723 118.487 529.879 119.112 532.083 119.135C534.286 119.158 536.454 118.577 538.352 117.457C543.213 114.494 543.891 109.09 543.958 108.455Z" fill="url(#paint19_radial_459_7391)"/>
<path style="mix-blend-mode:screen" d="M440.26 65.9039C450.515 64.826 457.94 55.4994 456.844 45.0722C455.748 34.6451 446.546 27.066 436.291 28.1439C426.035 29.2218 418.61 38.5485 419.706 48.9756C420.802 59.4028 430.004 66.9818 440.26 65.9039Z" fill="url(#paint20_radial_459_7391)"/>
<path d="M439.391 57.2143C444.979 56.6269 449.026 51.5453 448.429 45.8642C447.832 40.1832 442.817 36.054 437.228 36.6413C431.64 37.2287 427.593 42.3103 428.191 47.9914C428.788 53.6724 433.802 57.8017 439.391 57.2143Z" stroke="#AA6019" stroke-width="11.5404" stroke-miterlimit="10"/>
<path d="M448.408 45.8961C448.584 47.8935 448.166 49.8982 447.206 51.6586C446.246 53.4189 444.787 54.8565 443.013 55.7906C441.239 56.7248 439.228 57.114 437.234 56.9094C435.239 56.7047 433.35 55.9153 431.802 54.6403C430.255 53.3653 429.119 51.6615 428.536 49.7429C427.954 47.8243 427.951 45.7764 428.529 43.8563C429.107 41.9363 430.239 40.2298 431.783 38.951C433.327 37.6722 435.215 36.8781 437.209 36.6686C438.55 36.5386 439.904 36.6742 441.193 37.0676C442.482 37.4611 443.681 38.1047 444.721 38.9616C445.761 39.8186 446.622 40.8721 447.255 42.062C447.887 43.2518 448.279 44.5547 448.408 45.8961Z" fill="url(#paint21_radial_459_7391)"/>
<path style="mix-blend-mode:screen" d="M443.219 38.7652C443.7 40.9578 436.579 44.0016 435.872 44.2998C433.727 45.2182 429.938 46.8387 428.919 45.6125C427.808 44.2757 429.962 39.472 433.756 37.6063C437.55 35.7406 442.844 37.0149 443.219 38.7652Z" fill="url(#paint22_radial_459_7391)"/>
<path style="mix-blend-mode:screen" d="M447.932 43.7757C448.409 45.2967 448.54 46.905 448.317 48.4832C448.216 49.1516 447.413 54.0322 442.835 56.3211C438.709 58.3791 434.776 56.7106 434.271 56.4894C432.445 55.6662 430.898 54.3296 429.818 52.6426C431.693 53.8009 433.849 54.4248 436.052 54.4469C438.256 54.4689 440.423 53.8882 442.321 52.7676C447.187 49.8104 447.86 44.42 447.932 43.7757Z" fill="url(#paint23_radial_459_7391)"/>
<path style="mix-blend-mode:screen" d="M537.043 555.315C547.298 554.237 554.724 544.91 553.628 534.483C552.532 524.056 543.33 516.477 533.074 517.555C522.819 518.632 515.393 527.959 516.489 538.386C517.585 548.813 526.787 556.392 537.043 555.315Z" fill="url(#paint24_radial_459_7391)"/>
<path d="M536.226 546.61C541.814 546.023 545.861 540.941 545.264 535.26C544.667 529.579 539.652 525.45 534.063 526.037C528.475 526.625 524.428 531.706 525.025 537.387C525.623 543.069 530.637 547.198 536.226 546.61Z" stroke="#AA6019" stroke-width="11.5404" stroke-miterlimit="10"/>
<path d="M545.217 535.292C545.394 537.29 544.976 539.295 544.017 541.056C543.058 542.817 541.6 544.255 539.826 545.19C538.052 546.125 536.041 546.515 534.047 546.311C532.052 546.107 530.162 545.318 528.614 544.043C527.066 542.768 525.929 541.065 525.346 539.146C524.764 537.227 524.761 535.179 525.338 533.259C525.916 531.339 527.048 529.632 528.592 528.353C530.136 527.074 532.024 526.279 534.018 526.07C536.726 525.808 539.427 526.633 541.527 528.363C543.627 530.092 544.955 532.585 545.217 535.292Z" fill="url(#paint25_radial_459_7391)"/>
<path style="mix-blend-mode:screen" d="M540.034 528.166C540.515 530.359 533.389 533.398 532.682 533.701C530.537 534.619 526.748 536.24 525.734 535.014C524.618 533.677 526.772 528.873 530.571 527.007C534.37 525.142 539.654 526.416 540.034 528.166Z" fill="url(#paint26_radial_459_7391)"/>
<path style="mix-blend-mode:screen" d="M544.742 533.172C545.22 534.694 545.352 536.304 545.126 537.884C545.03 538.553 544.222 543.433 539.645 545.717C535.519 547.775 531.586 546.112 531.086 545.89C529.258 545.07 527.71 543.733 526.633 542.044C528.507 543.204 530.662 543.829 532.866 543.852C535.069 543.875 537.237 543.294 539.135 542.173C543.996 539.211 544.674 533.816 544.742 533.172Z" fill="url(#paint27_radial_459_7391)"/>
<path style="mix-blend-mode:screen" d="M602.014 457.276C612.27 456.198 619.695 446.871 618.599 436.444C617.503 426.017 608.301 418.438 598.046 419.516C587.79 420.594 580.365 429.92 581.461 440.347C582.557 450.775 591.759 458.354 602.014 457.276Z" fill="url(#paint28_radial_459_7391)"/>
<path d="M601.189 448.567C606.777 447.979 610.824 442.898 610.226 437.217C609.629 431.536 604.615 427.406 599.026 427.994C593.438 428.581 589.391 433.663 589.988 439.344C590.585 445.025 595.6 449.154 601.189 448.567Z" stroke="#AA6019" stroke-width="11.5404" stroke-miterlimit="10"/>
<path d="M610.186 437.256C610.361 439.254 609.943 441.258 608.983 443.019C608.023 444.779 606.565 446.217 604.79 447.151C603.016 448.085 601.006 448.474 599.011 448.27C597.017 448.065 595.127 447.276 593.58 446.001C592.032 444.726 590.896 443.022 590.314 441.103C589.731 439.185 589.729 437.137 590.306 435.217C590.884 433.297 592.016 431.59 593.56 430.311C595.105 429.032 596.992 428.238 598.986 428.029C600.328 427.899 601.682 428.034 602.971 428.428C604.259 428.821 605.458 429.465 606.498 430.322C607.538 431.179 608.399 432.232 609.032 433.422C609.665 434.612 610.057 435.915 610.186 437.256Z" fill="url(#paint29_radial_459_7391)"/>
<path style="mix-blend-mode:screen" d="M604.992 430.125C605.473 432.318 598.347 435.357 597.64 435.66C595.495 436.578 591.706 438.199 590.692 436.973C589.576 435.636 591.73 430.832 595.529 428.967C599.328 427.101 604.622 428.375 604.992 430.125Z" fill="url(#paint30_radial_459_7391)"/>
<path style="mix-blend-mode:screen" d="M609.71 435.131C610.188 436.653 610.32 438.264 610.094 439.843C609.998 440.512 609.195 445.392 604.612 447.676C600.487 449.739 596.553 448.071 596.053 447.85C594.227 447.026 592.68 445.69 591.601 444.003C593.475 445.161 595.631 445.785 597.834 445.807C600.038 445.829 602.205 445.248 604.103 444.128C608.964 441.171 609.642 435.775 609.71 435.131Z" fill="url(#paint31_radial_459_7391)"/>
<path style="mix-blend-mode:screen" d="M440.522 620.478C450.778 619.4 458.203 610.074 457.107 599.647C456.011 589.219 446.809 581.64 436.554 582.718C426.298 583.796 418.873 593.123 419.969 603.55C421.065 613.977 430.267 621.556 440.522 620.478Z" fill="url(#paint32_radial_459_7391)"/>
<path d="M439.715 611.784C445.304 611.196 449.35 606.115 448.753 600.434C448.156 594.753 443.141 590.624 437.553 591.211C431.964 591.798 427.918 596.88 428.515 602.561C429.112 608.242 434.126 612.371 439.715 611.784Z" stroke="#AA6019" stroke-width="11.5404" stroke-miterlimit="10"/>
<path d="M448.69 600.454C448.867 602.452 448.449 604.457 447.49 606.218C446.531 607.979 445.073 609.417 443.299 610.352C441.525 611.287 439.514 611.677 437.519 611.473C435.524 611.269 433.634 610.48 432.086 609.205C430.539 607.93 429.402 606.226 428.819 604.308C428.236 602.389 428.233 600.341 428.811 598.421C429.388 596.5 430.52 594.794 432.065 593.514C433.609 592.235 435.497 591.441 437.491 591.231C440.199 590.971 442.899 591.797 444.999 593.526C447.098 595.255 448.426 597.747 448.69 600.454Z" fill="url(#paint33_radial_459_7391)"/>
<path style="mix-blend-mode:screen" d="M443.516 593.333C443.996 595.525 436.87 598.569 436.163 598.872C434.023 599.786 430.234 601.406 429.215 600.185C428.099 598.843 430.254 594.04 434.052 592.179C437.851 590.318 443.14 591.582 443.516 593.333Z" fill="url(#paint34_radial_459_7391)"/>
<path style="mix-blend-mode:screen" d="M448.208 598.343C448.687 599.864 448.819 601.473 448.593 603.051C448.497 603.724 447.694 608.605 443.111 610.889C438.991 612.947 435.052 611.283 434.552 611.057C432.726 610.234 431.179 608.897 430.1 607.21C431.973 608.37 434.129 608.996 436.333 609.019C438.536 609.041 440.704 608.461 442.602 607.34C447.482 604.378 448.156 599.012 448.208 598.343Z" fill="url(#paint35_radial_459_7391)"/>
<path style="mix-blend-mode:screen" d="M209.653 65.1195C219.909 64.0416 227.334 54.7149 226.238 44.2877C225.142 33.8606 215.94 26.2815 205.684 27.3594C195.429 28.4373 188.004 37.764 189.1 48.1911C190.196 58.6183 199.398 66.1974 209.653 65.1195Z" fill="url(#paint36_radial_459_7391)"/>
<path d="M208.783 56.4585C214.372 55.8711 218.418 50.7896 217.821 45.1085C217.224 39.4274 212.21 35.2982 206.621 35.8856C201.032 36.473 196.986 41.5546 197.583 47.2356C198.18 52.9167 203.195 57.0459 208.783 56.4585Z" stroke="#AA6019" stroke-width="11.5404" stroke-miterlimit="10"/>
<path d="M217.801 45.1364C217.978 47.1338 217.56 49.1389 216.601 50.8998C215.642 52.6607 214.184 54.099 212.41 55.0339C210.636 55.9688 208.625 56.3587 206.631 56.1547C204.636 55.9506 202.746 55.1617 201.198 53.8869C199.65 52.6122 198.513 50.9085 197.93 48.9898C197.348 47.0712 197.345 45.0231 197.922 43.1028C198.5 41.1825 199.632 39.4756 201.176 38.1966C202.72 36.9175 204.608 36.1233 206.602 35.9136C209.31 35.6523 212.011 36.477 214.111 38.2065C216.211 39.9359 217.539 42.4286 217.801 45.1364Z" fill="url(#paint37_radial_459_7391)"/>
<path style="mix-blend-mode:screen" d="M212.617 37.991C213.098 40.1837 205.972 43.2274 205.27 43.5304C203.125 44.444 199.336 46.0645 198.317 44.8431C197.201 43.5015 199.355 38.7026 203.154 36.8369C206.953 34.9712 212.237 36.2407 212.617 37.991Z" fill="url(#paint38_radial_459_7391)"/>
<path style="mix-blend-mode:screen" d="M217.32 43.0014C217.801 44.5216 217.934 46.1304 217.709 47.7089C217.608 48.3821 216.805 53.2628 212.223 55.5468C208.102 57.6048 204.169 55.9411 203.664 55.7151C201.838 54.8919 200.291 53.5553 199.211 51.8683C201.085 53.0284 203.24 53.6537 205.444 53.6766C207.648 53.6995 209.816 53.1191 211.713 51.9981C216.579 49.0361 217.253 43.6457 217.32 43.0014Z" fill="url(#paint39_radial_459_7391)"/>
<path style="mix-blend-mode:screen" d="M22.5623 343.09C32.8178 342.012 40.2431 332.685 39.1472 322.258C38.0512 311.831 28.8491 304.252 18.5936 305.33C8.33813 306.407 0.912852 315.734 2.00879 326.161C3.10473 336.588 12.3069 344.167 22.5623 343.09Z" fill="url(#paint40_radial_459_7391)"/>
<path d="M21.7316 334.443C27.3202 333.856 31.3666 328.774 30.7695 323.093C30.1724 317.412 25.1579 313.283 19.5693 313.87C13.9807 314.458 9.93424 319.539 10.5313 325.22C11.1284 330.901 16.143 335.031 21.7316 334.443Z" stroke="#AA6019" stroke-width="11.5404" stroke-miterlimit="10"/>
<path d="M30.73 323.097C30.9067 325.095 30.4892 327.1 29.53 328.861C28.5708 330.622 27.1126 332.06 25.3387 332.995C23.5647 333.93 21.5541 334.32 19.5593 334.116C17.5645 333.912 15.6744 333.123 14.1265 331.848C12.5786 330.573 11.4419 328.87 10.8591 326.951C10.2763 325.032 10.2735 322.984 10.8509 321.064C11.4283 319.144 12.5603 317.437 14.1046 316.158C15.6489 314.879 17.5367 314.084 19.531 313.875C22.2389 313.613 24.9398 314.438 27.0399 316.168C29.1399 317.897 30.4672 320.39 30.73 323.097Z" fill="url(#paint41_radial_459_7391)"/>
<path style="mix-blend-mode:screen" d="M25.5661 315.966C26.047 318.159 18.9255 321.203 18.2187 321.506C16.0741 322.419 12.285 324.04 11.2656 322.819C10.1548 321.477 12.309 316.673 16.1078 314.812C19.9065 312.951 25.167 314.216 25.5661 315.966Z" fill="url(#paint42_radial_459_7391)"/>
<path style="mix-blend-mode:screen" d="M30.2543 320.977C30.7329 322.498 30.8643 324.106 30.639 325.684C30.538 326.358 29.735 331.233 25.1573 333.522C21.0316 335.58 17.0982 333.917 16.5933 333.691C14.7674 332.867 13.2203 331.531 12.1406 329.844C14.0144 331.004 16.1699 331.629 18.3736 331.652C20.5773 331.675 22.7453 331.095 24.6428 329.974C29.509 327.012 30.1822 321.626 30.2543 320.977Z" fill="url(#paint43_radial_459_7391)"/>
<path style="mix-blend-mode:screen" d="M323.325 644.637C333.58 643.559 341.006 634.233 339.91 623.805C338.814 613.378 329.612 605.799 319.356 606.877C309.101 607.955 301.676 617.282 302.771 627.709C303.867 638.136 313.07 645.715 323.325 644.637Z" fill="url(#paint44_radial_459_7391)"/>
<path d="M322.518 635.952C328.106 635.365 332.153 630.283 331.556 624.602C330.959 618.921 325.944 614.792 320.355 615.379C314.767 615.967 310.72 621.048 311.317 626.729C311.915 632.41 316.929 636.54 322.518 635.952Z" stroke="#AA6019" stroke-width="11.5404" stroke-miterlimit="10"/>
<path d="M331.508 624.625C331.69 626.624 331.277 628.632 330.32 630.396C329.364 632.161 327.907 633.603 326.132 634.541C324.358 635.48 322.346 635.873 320.349 635.67C318.353 635.468 316.46 634.68 314.91 633.404C313.36 632.129 312.222 630.424 311.639 628.504C311.056 626.583 311.054 624.533 311.633 622.611C312.212 620.69 313.347 618.982 314.894 617.704C316.441 616.425 318.332 615.633 320.328 615.426C323.029 615.17 325.722 615.994 327.817 617.718C329.912 619.442 331.239 621.925 331.508 624.625Z" fill="url(#paint45_radial_459_7391)"/>
<path style="mix-blend-mode:screen" d="M331.032 622.505C331.508 624.026 331.639 625.634 331.416 627.212C331.315 627.885 330.512 632.766 325.93 635.05C321.809 637.108 317.876 635.444 317.371 635.223C315.546 634.398 313.999 633.062 312.918 631.376C314.792 632.536 316.947 633.162 319.151 633.185C321.355 633.207 323.523 632.627 325.42 631.506C330.286 628.539 330.96 623.149 331.032 622.505Z" fill="url(#paint46_radial_459_7391)"/>
<path style="mix-blend-mode:screen" d="M208.561 622.24C218.817 621.163 226.242 611.836 225.146 601.409C224.05 590.982 214.848 583.402 204.593 584.48C194.337 585.558 186.912 594.885 188.008 605.312C189.104 615.739 198.306 623.318 208.561 622.24Z" fill="url(#paint47_radial_459_7391)"/>
<path d="M207.754 613.57C213.343 612.983 217.389 607.901 216.792 602.22C216.195 596.539 211.18 592.41 205.592 592.997C200.003 593.584 195.957 598.666 196.554 604.347C197.151 610.028 202.165 614.157 207.754 613.57Z" stroke="#AA6019" stroke-width="11.5404" stroke-miterlimit="10"/>
<path d="M216.743 602.241C216.919 604.239 216.5 606.243 215.541 608.004C214.581 609.764 213.122 611.202 211.348 612.136C209.574 613.07 207.563 613.459 205.569 613.255C203.574 613.05 201.685 612.261 200.137 610.986C198.59 609.711 197.454 608.007 196.871 606.088C196.289 604.17 196.286 602.122 196.864 600.202C197.442 598.282 198.574 596.575 200.118 595.296C201.662 594.017 203.55 593.223 205.544 593.014C206.885 592.884 208.239 593.019 209.528 593.413C210.817 593.806 212.016 594.45 213.056 595.307C214.096 596.164 214.957 597.217 215.59 598.407C216.222 599.597 216.614 600.9 216.743 602.241Z" fill="url(#paint48_radial_459_7391)"/>
<path style="mix-blend-mode:screen" d="M211.556 595.11C212.036 597.303 204.915 600.347 204.208 600.645C202.064 601.563 198.275 603.184 197.26 601.958C196.144 600.621 198.299 595.817 202.097 593.952C205.896 592.086 211.176 593.36 211.556 595.11Z" fill="url(#paint49_radial_459_7391)"/>
<path style="mix-blend-mode:screen" d="M216.267 600.121C216.746 601.641 216.878 603.25 216.652 604.828C216.551 605.497 215.748 610.377 211.17 612.666C207.044 614.724 203.111 613.056 202.611 612.835C200.783 612.015 199.235 610.677 198.158 608.988C200.033 610.147 202.188 610.771 204.392 610.793C206.595 610.815 208.763 610.234 210.66 609.113C215.503 606.156 216.195 600.765 216.267 600.121Z" fill="url(#paint50_radial_459_7391)"/>
<path style="mix-blend-mode:screen" d="M110.688 556.2C120.944 555.122 128.369 545.795 127.273 535.368C126.177 524.941 116.975 517.362 106.72 518.44C96.4641 519.518 89.0388 528.844 90.1348 539.271C91.2307 549.699 100.433 557.278 110.688 556.2Z" fill="url(#paint51_radial_459_7391)"/>
<path d="M109.876 547.539C115.465 546.951 119.511 541.87 118.914 536.189C118.317 530.508 113.302 526.379 107.714 526.966C102.125 527.553 98.0788 532.635 98.6759 538.316C99.273 543.997 104.288 548.126 109.876 547.539Z" stroke="#AA6019" stroke-width="11.5404" stroke-miterlimit="10"/>
<path d="M118.851 536.201C119.028 538.199 118.61 540.204 117.651 541.965C116.692 543.726 115.234 545.164 113.46 546.099C111.686 547.034 109.675 547.424 107.68 547.22C105.686 547.016 103.796 546.227 102.248 544.952C100.7 543.677 99.563 541.973 98.9802 540.055C98.3974 538.136 98.3946 536.088 98.972 534.168C99.5494 532.247 100.681 530.541 102.226 529.262C103.77 527.982 105.658 527.188 107.652 526.979C110.36 526.719 113.06 527.544 115.16 529.273C117.259 531.002 118.587 533.494 118.851 536.201Z" fill="url(#paint52_radial_459_7391)"/>
<path style="mix-blend-mode:screen" d="M113.678 529.07C114.158 531.263 107.032 534.307 106.325 534.61C104.186 535.528 100.396 537.149 99.3771 535.922C98.2615 534.586 100.416 529.782 104.214 527.916C108.013 526.05 113.303 527.325 113.678 529.07Z" fill="url(#paint53_radial_459_7391)"/>
<path style="mix-blend-mode:screen" d="M118.371 534.081C118.849 535.603 118.981 537.213 118.755 538.793C118.659 539.461 117.856 544.342 113.274 546.626C109.153 548.684 105.214 547.02 104.714 546.799C102.888 545.976 101.341 544.639 100.262 542.952C102.136 544.113 104.291 544.738 106.495 544.761C108.698 544.784 110.866 544.203 112.764 543.082C117.645 540.12 118.318 534.725 118.371 534.081Z" fill="url(#paint54_radial_459_7391)"/>
<path style="mix-blend-mode:screen" d="M44.7811 457.47C55.0366 456.392 62.4618 447.065 61.3659 436.638C60.27 426.211 51.0678 418.632 40.8124 419.71C30.5569 420.788 23.1316 430.114 24.2275 440.541C25.3235 450.968 34.5256 458.548 44.7811 457.47Z" fill="url(#paint55_radial_459_7391)"/>
<path d="M43.9601 448.818C49.5487 448.231 53.5951 443.149 52.998 437.468C52.4009 431.787 47.3864 427.658 41.7978 428.245C36.2092 428.833 32.1628 433.914 32.7599 439.596C33.357 445.277 38.3715 449.406 43.9601 448.818Z" stroke="#AA6019" stroke-width="11.5404" stroke-miterlimit="10"/>
<path d="M52.9536 437.475C53.1303 439.473 52.7128 441.478 51.7535 443.24C50.7942 445.001 49.3358 446.439 47.5616 447.374C45.7874 448.309 43.7765 448.698 41.7814 448.494C39.7864 448.29 37.8963 447.5 36.3485 446.225C34.8007 444.95 33.6643 443.246 33.0819 441.327C32.4996 439.408 32.4974 437.359 33.0755 435.439C33.6537 433.519 34.7864 431.812 36.3314 430.534C37.8764 429.255 39.7648 428.461 41.7593 428.253C44.4668 427.991 47.1671 428.816 49.2664 430.546C51.3657 432.275 52.692 434.768 52.9536 437.475Z" fill="url(#paint56_radial_459_7391)"/>
<path style="mix-blend-mode:screen" d="M47.7694 430.344C48.2503 432.537 41.1241 435.581 40.4172 435.884C38.2726 436.797 34.4883 438.418 33.4689 437.197C32.3533 435.855 34.5075 431.051 38.3063 429.19C42.105 427.33 47.3895 428.594 47.7694 430.344Z" fill="url(#paint57_radial_459_7391)"/>
<path style="mix-blend-mode:screen" d="M52.4771 435.355C52.9557 436.876 53.0871 438.484 52.8617 440.062C52.7656 440.736 51.9625 445.612 47.38 447.9C45.1396 449.004 42.5696 449.239 40.1665 448.558C37.7633 447.878 35.6975 446.331 34.3682 444.217C36.2419 445.377 38.3974 446.002 40.6011 446.025C42.8048 446.048 44.9728 445.468 46.8703 444.347C51.7317 441.39 52.4097 435.999 52.4771 435.355Z" fill="url(#paint58_radial_459_7391)"/>
<defs>
<linearGradient id="paint0_linear_459_7391" x1="87.9759" y1="105.416" x2="555.229" y2="544.068" gradientUnits="userSpaceOnUse">
<stop offset="0.04" stop-color="#FFFDA0"/>
<stop offset="0.13" stop-color="#FEF373"/>
<stop offset="0.27" stop-color="#FBDF58"/>
<stop offset="0.4" stop-color="#FDF475"/>
<stop offset="0.59" stop-color="#F7CD54"/>
<stop offset="0.66" stop-color="#ECBB45"/>
<stop offset="0.75" stop-color="#E1AA36"/>
<stop offset="0.99" stop-color="#C78F32"/>
</linearGradient>
<radialGradient id="paint1_radial_459_7391" cx="0" cy="0" r="1" gradientUnits="userSpaceOnUse" gradientTransform="translate(621.513 324.339) rotate(-6) scale(18.609 18.9888)">
<stop stop-color="#DC8E43"/>
<stop offset="0.1" stop-color="#D58941"/>
<stop offset="0.24" stop-color="#C17D3B"/>
<stop offset="0.41" stop-color="#A06831"/>
<stop offset="0.6" stop-color="#734A23"/>
<stop offset="0.81" stop-color="#3A2512"/>
<stop offset="0.99"/>
</radialGradient>
<radialGradient id="paint2_radial_459_7391" cx="0" cy="0" r="1" gradientUnits="userSpaceOnUse" gradientTransform="translate(622.711 324.16) scale(10.2613 10.2614)">
<stop stop-color="#E0B447"/>
<stop offset="0.22" stop-color="#E3B94E"/>
<stop offset="0.54" stop-color="#EBC662"/>
<stop offset="0.92" stop-color="#F8DB82"/>
<stop offset="0.99" stop-color="#FBE089"/>
</radialGradient>
<radialGradient id="paint3_radial_459_7391" cx="0" cy="0" r="1" gradientUnits="userSpaceOnUse" gradientTransform="translate(613.174 314.816) rotate(-55.0691) scale(5.74951 4.95013)">
<stop offset="0.1" stop-color="white"/>
<stop offset="1"/>
</radialGradient>
<radialGradient id="paint4_radial_459_7391" cx="0" cy="0" r="1" gradientUnits="userSpaceOnUse" gradientTransform="translate(615.304 337.335) rotate(-60.6039) scale(7.82538 7.45184)">
<stop offset="0.1" stop-color="white"/>
<stop offset="1"/>
</radialGradient>
<radialGradient id="paint5_radial_459_7391" cx="0" cy="0" r="1" gradientUnits="userSpaceOnUse" gradientTransform="translate(320.684 22.8057) scale(14.4015 14.4015)">
<stop offset="0.1" stop-color="white"/>
<stop offset="0.22" stop-color="#FBFBFB"/>
<stop offset="0.33" stop-color="#EFEFEF"/>
<stop offset="0.44" stop-color="#DCDCDC"/>
<stop offset="0.55" stop-color="#C0C0C0"/>
<stop offset="0.67" stop-color="#9C9C9C"/>
<stop offset="0.78" stop-color="#717171"/>
<stop offset="0.89" stop-color="#3D3D3D"/>
<stop offset="1"/>
</radialGradient>
<radialGradient id="paint6_radial_459_7391" cx="0" cy="0" r="1" gradientUnits="userSpaceOnUse" gradientTransform="translate(323.204 23.1135) scale(15.9258)">
<stop offset="0.1" stop-color="white"/>
<stop offset="0.22" stop-color="#FBFBFB"/>
<stop offset="0.33" stop-color="#EFEFEF"/>
<stop offset="0.44" stop-color="#DCDCDC"/>
<stop offset="0.55" stop-color="#C0C0C0"/>
<stop offset="0.67" stop-color="#9C9C9C"/>
<stop offset="0.78" stop-color="#717171"/>
<stop offset="0.89" stop-color="#3D3D3D"/>
<stop offset="1"/>
</radialGradient>
<radialGradient id="paint7_radial_459_7391" cx="0" cy="0" r="1" gradientUnits="userSpaceOnUse" gradientTransform="translate(108.422 111.374) scale(15.9258 15.9258)">
<stop offset="0.1" stop-color="white"/>
<stop offset="0.22" stop-color="#FBFBFB"/>
<stop offset="0.33" stop-color="#EFEFEF"/>
<stop offset="0.44" stop-color="#DCDCDC"/>
<stop offset="0.55" stop-color="#C0C0C0"/>
<stop offset="0.67" stop-color="#9C9C9C"/>
<stop offset="0.78" stop-color="#717171"/>
<stop offset="0.89" stop-color="#3D3D3D"/>
<stop offset="1"/>
</radialGradient>
<radialGradient id="paint8_radial_459_7391" cx="0" cy="0" r="1" gradientUnits="userSpaceOnUse" gradientTransform="translate(598.689 209.842) rotate(-6) scale(18.609 18.9888)">
<stop stop-color="#DC8E43"/>
<stop offset="0.1" stop-color="#D58941"/>
<stop offset="0.24" stop-color="#C17D3B"/>
<stop offset="0.41" stop-color="#A06831"/>
<stop offset="0.6" stop-color="#734A23"/>
<stop offset="0.81" stop-color="#3A2512"/>
<stop offset="0.99"/>
</radialGradient>
<radialGradient id="paint9_radial_459_7391" cx="0" cy="0" r="1" gradientUnits="userSpaceOnUse" gradientTransform="translate(599.857 209.665) scale(10.2614 10.2614)">
<stop stop-color="#E0B447"/>
<stop offset="0.22" stop-color="#E3B94E"/>
<stop offset="0.54" stop-color="#EBC662"/>
<stop offset="0.92" stop-color="#F8DB82"/>
<stop offset="0.99" stop-color="#FBE089"/>
</radialGradient>
<radialGradient id="paint10_radial_459_7391" cx="0" cy="0" r="1" gradientUnits="userSpaceOnUse" gradientTransform="translate(590.165 200.247) rotate(-55.0691) scale(5.74951 4.95013)">
<stop offset="0.1" stop-color="white"/>
<stop offset="1"/>
</radialGradient>
<radialGradient id="paint11_radial_459_7391" cx="0" cy="0" r="1" gradientUnits="userSpaceOnUse" gradientTransform="translate(591.993 223.352) rotate(-60.6039) scale(7.82538 7.45185)">
<stop offset="0.1" stop-color="white"/>
<stop offset="1"/>
</radialGradient>
<radialGradient id="paint12_radial_459_7391" cx="0" cy="0" r="1" gradientUnits="userSpaceOnUse" gradientTransform="translate(44.1343 209.649) rotate(-6) scale(18.6091 18.9888)">
<stop stop-color="#DC8E43"/>
<stop offset="0.1" stop-color="#D58941"/>
<stop offset="0.24" stop-color="#C17D3B"/>
<stop offset="0.41" stop-color="#A06831"/>
<stop offset="0.6" stop-color="#734A23"/>
<stop offset="0.81" stop-color="#3A2512"/>
<stop offset="0.99"/>
</radialGradient>
<radialGradient id="paint13_radial_459_7391" cx="0" cy="0" r="1" gradientUnits="userSpaceOnUse" gradientTransform="translate(43.4199 209.665) scale(10.2614 10.2614)">
<stop stop-color="#E0B447"/>
<stop offset="0.22" stop-color="#E3B94E"/>
<stop offset="0.54" stop-color="#EBC662"/>
<stop offset="0.92" stop-color="#F8DB82"/>
<stop offset="0.99" stop-color="#FBE089"/>
</radialGradient>
<radialGradient id="paint14_radial_459_7391" cx="0" cy="0" r="1" gradientUnits="userSpaceOnUse" gradientTransform="translate(35.7076 201.409) rotate(-55.0691) scale(5.74951 4.95013)">
<stop offset="0.1" stop-color="white"/>
<stop offset="1"/>
</radialGradient>
<radialGradient id="paint15_radial_459_7391" cx="0" cy="0" r="1" gradientUnits="userSpaceOnUse" gradientTransform="translate(35.6555 223.256) rotate(-60.6039) scale(7.82538 7.45184)">
<stop offset="0.1" stop-color="white"/>
<stop offset="1"/>
</radialGradient>
<radialGradient id="paint16_radial_459_7391" cx="0" cy="0" r="1" gradientUnits="userSpaceOnUse" gradientTransform="translate(533.332 111.789) rotate(-6) scale(18.6091 18.9888)">
<stop stop-color="#DC8E43"/>
<stop offset="0.1" stop-color="#D58941"/>
<stop offset="0.24" stop-color="#C17D3B"/>
<stop offset="0.41" stop-color="#A06831"/>
<stop offset="0.6" stop-color="#734A23"/>
<stop offset="0.81" stop-color="#3A2512"/>
<stop offset="0.99"/>
</radialGradient>
<radialGradient id="paint17_radial_459_7391" cx="0" cy="0" r="1" gradientUnits="userSpaceOnUse" gradientTransform="translate(534.317 111.643) scale(10.2614 10.2614)">
<stop stop-color="#E0B447"/>
<stop offset="0.22" stop-color="#E3B94E"/>
<stop offset="0.54" stop-color="#EBC662"/>
<stop offset="0.92" stop-color="#F8DB82"/>
<stop offset="0.99" stop-color="#FBE089"/>
</radialGradient>
<radialGradient id="paint18_radial_459_7391" cx="0" cy="0" r="1" gradientUnits="userSpaceOnUse" gradientTransform="translate(524.663 102.26) rotate(-55.0691) scale(5.74951 4.95013)">
<stop offset="0.1" stop-color="white"/>
<stop offset="1"/>
</radialGradient>
<radialGradient id="paint19_radial_459_7391" cx="0" cy="0" r="1" gradientUnits="userSpaceOnUse" gradientTransform="translate(526.073 125.764) rotate(-60.604) scale(7.82539 7.45185)">
<stop offset="0.1" stop-color="white"/>
<stop offset="1"/>
</radialGradient>
<radialGradient id="paint20_radial_459_7391" cx="0" cy="0" r="1" gradientUnits="userSpaceOnUse" gradientTransform="translate(437.611 47.0793) rotate(-6) scale(18.6091 18.9888)">
<stop stop-color="#DC8E43"/>
<stop offset="0.1" stop-color="#D58941"/>
<stop offset="0.24" stop-color="#C17D3B"/>
<stop offset="0.41" stop-color="#A06831"/>
<stop offset="0.6" stop-color="#734A23"/>
<stop offset="0.81" stop-color="#3A2512"/>
<stop offset="0.99"/>
</radialGradient>
<radialGradient id="paint21_radial_459_7391" cx="0" cy="0" r="1" gradientUnits="userSpaceOnUse" gradientTransform="translate(438.291 46.9588) scale(10.2614)">
<stop stop-color="#E0B447"/>
<stop offset="0.22" stop-color="#E3B94E"/>
<stop offset="0.54" stop-color="#EBC662"/>
<stop offset="0.92" stop-color="#F8DB82"/>
<stop offset="0.99" stop-color="#FBE089"/>
</radialGradient>
<radialGradient id="paint22_radial_459_7391" cx="0" cy="0" r="1" gradientUnits="userSpaceOnUse" gradientTransform="translate(428.844 37.7092) rotate(-55.069) scale(5.7495 4.95012)">
<stop offset="0.1" stop-color="white"/>
<stop offset="1"/>
</radialGradient>
<radialGradient id="paint23_radial_459_7391" cx="0" cy="0" r="1" gradientUnits="userSpaceOnUse" gradientTransform="translate(429.8 61.3575) rotate(-60.6039) scale(7.8254 7.45187)">
<stop offset="0.1" stop-color="white"/>
<stop offset="1"/>
</radialGradient>
<radialGradient id="paint24_radial_459_7391" cx="0" cy="0" r="1" gradientUnits="userSpaceOnUse" gradientTransform="translate(534.281 536.512) rotate(-6) scale(18.6091 18.9888)">
<stop stop-color="#DC8E43"/>
<stop offset="0.1" stop-color="#D58941"/>
<stop offset="0.24" stop-color="#C17D3B"/>
<stop offset="0.41" stop-color="#A06831"/>
<stop offset="0.6" stop-color="#734A23"/>
<stop offset="0.81" stop-color="#3A2512"/>
<stop offset="0.99"/>
</radialGradient>
<radialGradient id="paint25_radial_459_7391" cx="0" cy="0" r="1" gradientUnits="userSpaceOnUse" gradientTransform="translate(535.1 536.36) scale(10.2614 10.2614)">
<stop stop-color="#E0B447"/>
<stop offset="0.22" stop-color="#E3B94E"/>
<stop offset="0.54" stop-color="#EBC662"/>
<stop offset="0.92" stop-color="#F8DB82"/>
<stop offset="0.99" stop-color="#FBE089"/>
</radialGradient>
<radialGradient id="paint26_radial_459_7391" cx="0" cy="0" r="1" gradientUnits="userSpaceOnUse" gradientTransform="translate(526.306 527.414) rotate(-55.0691) scale(5.74951 4.95013)">
<stop offset="0.1" stop-color="white"/>
<stop offset="1"/>
</radialGradient>
<radialGradient id="paint27_radial_459_7391" cx="0" cy="0" r="1" gradientUnits="userSpaceOnUse" gradientTransform="translate(528.564 548.551) rotate(-60.6041) scale(7.8254 7.45185)">
<stop offset="0.1" stop-color="white"/>
<stop offset="1"/>
</radialGradient>
<radialGradient id="paint28_radial_459_7391" cx="0" cy="0" r="1" gradientUnits="userSpaceOnUse" gradientTransform="translate(598.99 438.491) rotate(-6) scale(18.6091 18.9888)">
<stop stop-color="#DC8E43"/>
<stop offset="0.1" stop-color="#D58941"/>
<stop offset="0.24" stop-color="#C17D3B"/>
<stop offset="0.41" stop-color="#A06831"/>
<stop offset="0.6" stop-color="#734A23"/>
<stop offset="0.81" stop-color="#3A2512"/>
<stop offset="0.99"/>
</radialGradient>
<radialGradient id="paint29_radial_459_7391" cx="0" cy="0" r="1" gradientUnits="userSpaceOnUse" gradientTransform="translate(600.068 438.319) scale(10.2614 10.2614)">
<stop stop-color="#E0B447"/>
<stop offset="0.22" stop-color="#E3B94E"/>
<stop offset="0.54" stop-color="#EBC662"/>
<stop offset="0.92" stop-color="#F8DB82"/>
<stop offset="0.99" stop-color="#FBE089"/>
</radialGradient>
<radialGradient id="paint30_radial_459_7391" cx="0" cy="0" r="1" gradientUnits="userSpaceOnUse" gradientTransform="translate(590.847 429.136) rotate(-55.0691) scale(5.74951 4.95013)">
<stop offset="0.1" stop-color="white"/>
<stop offset="1"/>
</radialGradient>
<radialGradient id="paint31_radial_459_7391" cx="0" cy="0" r="1" gradientUnits="userSpaceOnUse" gradientTransform="translate(593.127 450.966) rotate(-60.6038) scale(7.82539 7.45188)">
<stop offset="0.1" stop-color="white"/>
<stop offset="1"/>
</radialGradient>
<radialGradient id="paint32_radial_459_7391" cx="0" cy="0" r="1" gradientUnits="userSpaceOnUse" gradientTransform="translate(438.116 601.643) rotate(-6) scale(18.609 18.9888)">
<stop stop-color="#DC8E43"/>
<stop offset="0.1" stop-color="#D58941"/>
<stop offset="0.24" stop-color="#C17D3B"/>
<stop offset="0.41" stop-color="#A06831"/>
<stop offset="0.6" stop-color="#734A23"/>
<stop offset="0.81" stop-color="#3A2512"/>
<stop offset="0.99"/>
</radialGradient>
<radialGradient id="paint33_radial_459_7391" cx="0" cy="0" r="1" gradientUnits="userSpaceOnUse" gradientTransform="translate(438.587 601.527) scale(10.2614 10.2614)">
<stop stop-color="#E0B447"/>
<stop offset="0.22" stop-color="#E3B94E"/>
<stop offset="0.54" stop-color="#EBC662"/>
<stop offset="0.92" stop-color="#F8DB82"/>
<stop offset="0.99" stop-color="#FBE089"/>
</radialGradient>
<radialGradient id="paint34_radial_459_7391" cx="0" cy="0" r="1" gradientUnits="userSpaceOnUse" gradientTransform="translate(430.27 592.857) rotate(-55.069) scale(5.74949 4.95012)">
<stop offset="0.1" stop-color="white"/>
<stop offset="1"/>
</radialGradient>
<radialGradient id="paint35_radial_459_7391" cx="0" cy="0" r="1" gradientUnits="userSpaceOnUse" gradientTransform="translate(432.333 613.4) rotate(-60.6039) scale(7.82539 7.45186)">
<stop offset="0.1" stop-color="white"/>
<stop offset="1"/>
</radialGradient>
<radialGradient id="paint36_radial_459_7391" cx="0" cy="0" r="1" gradientUnits="userSpaceOnUse" gradientTransform="translate(207.779 46.2279) rotate(-6) scale(18.609 18.9888)">
<stop stop-color="#DC8E43"/>
<stop offset="0.1" stop-color="#D58941"/>
<stop offset="0.24" stop-color="#C17D3B"/>
<stop offset="0.41" stop-color="#A06831"/>
<stop offset="0.6" stop-color="#734A23"/>
<stop offset="0.81" stop-color="#3A2512"/>
<stop offset="0.99"/>
</radialGradient>
<radialGradient id="paint37_radial_459_7391" cx="0" cy="0" r="1" gradientUnits="userSpaceOnUse" gradientTransform="translate(207.684 46.1846) scale(10.2614 10.2614)">
<stop stop-color="#E0B447"/>
<stop offset="0.22" stop-color="#E3B94E"/>
<stop offset="0.54" stop-color="#EBC662"/>
<stop offset="0.92" stop-color="#F8DB82"/>
<stop offset="0.99" stop-color="#FBE089"/>
</radialGradient>
<radialGradient id="paint38_radial_459_7391" cx="0" cy="0" r="1" gradientUnits="userSpaceOnUse" gradientTransform="translate(199.051 37.4189) rotate(-55.0691) scale(5.74951 4.95013)">
<stop offset="0.1" stop-color="white"/>
<stop offset="1"/>
</radialGradient>
<radialGradient id="paint39_radial_459_7391" cx="0" cy="0" r="1" gradientUnits="userSpaceOnUse" gradientTransform="translate(199.227 60.5496) rotate(-60.604) scale(7.82539 7.45185)">
<stop offset="0.1" stop-color="white"/>
<stop offset="1"/>
</radialGradient>
<radialGradient id="paint40_radial_459_7391" cx="0" cy="0" r="1" gradientUnits="userSpaceOnUse" gradientTransform="translate(21.4406 324.143) rotate(-6) scale(18.6091 18.9888)">
<stop stop-color="#DC8E43"/>
<stop offset="0.1" stop-color="#D58941"/>
<stop offset="0.24" stop-color="#C17D3B"/>
<stop offset="0.41" stop-color="#A06831"/>
<stop offset="0.6" stop-color="#734A23"/>
<stop offset="0.81" stop-color="#3A2512"/>
<stop offset="0.99"/>
</radialGradient>
<radialGradient id="paint41_radial_459_7391" cx="0" cy="0" r="1" gradientUnits="userSpaceOnUse" gradientTransform="translate(20.6129 324.16) scale(10.2614 10.2614)">
<stop stop-color="#E0B447"/>
<stop offset="0.22" stop-color="#E3B94E"/>
<stop offset="0.54" stop-color="#EBC662"/>
<stop offset="0.92" stop-color="#F8DB82"/>
<stop offset="0.99" stop-color="#FBE089"/>
</radialGradient>
<radialGradient id="paint42_radial_459_7391" cx="0" cy="0" r="1" gradientUnits="userSpaceOnUse" gradientTransform="translate(13.2107 316.072) rotate(-55.0691) scale(5.74951 4.95013)">
<stop offset="0.1" stop-color="white"/>
<stop offset="1"/>
</radialGradient>
<radialGradient id="paint43_radial_459_7391" cx="0" cy="0" r="1" gradientUnits="userSpaceOnUse" gradientTransform="translate(13.3104 337.23) rotate(-60.6039) scale(7.82538 7.45185)">
<stop offset="0.1" stop-color="white"/>
<stop offset="1"/>
</radialGradient>
<radialGradient id="paint44_radial_459_7391" cx="0" cy="0" r="1" gradientUnits="userSpaceOnUse" gradientTransform="translate(321.322 625.769) rotate(-6) scale(18.6091 18.9888)">
<stop stop-color="#DC8E43"/>
<stop offset="0.1" stop-color="#D58941"/>
<stop offset="0.24" stop-color="#C17D3B"/>
<stop offset="0.41" stop-color="#A06831"/>
<stop offset="0.6" stop-color="#734A23"/>
<stop offset="0.81" stop-color="#3A2512"/>
<stop offset="0.99"/>
</radialGradient>
<radialGradient id="paint45_radial_459_7391" cx="0" cy="0" r="1" gradientUnits="userSpaceOnUse" gradientTransform="translate(321.391 625.688) scale(10.2614 10.2614)">
<stop stop-color="#E0B447"/>
<stop offset="0.22" stop-color="#E3B94E"/>
<stop offset="0.54" stop-color="#EBC662"/>
<stop offset="0.92" stop-color="#F8DB82"/>
<stop offset="0.99" stop-color="#FBE089"/>
</radialGradient>
<radialGradient id="paint46_radial_459_7391" cx="0" cy="0" r="1" gradientUnits="userSpaceOnUse" gradientTransform="translate(315.25 637.438) rotate(-60.6039) scale(7.8254 7.45187)">
<stop offset="0.1" stop-color="white"/>
<stop offset="1"/>
</radialGradient>
<radialGradient id="paint47_radial_459_7391" cx="0" cy="0" r="1" gradientUnits="userSpaceOnUse" gradientTransform="translate(206.937 603.342) rotate(-6) scale(18.6091 18.9888)">
<stop stop-color="#DC8E43"/>
<stop offset="0.1" stop-color="#D58941"/>
<stop offset="0.24" stop-color="#C17D3B"/>
<stop offset="0.41" stop-color="#A06831"/>
<stop offset="0.6" stop-color="#734A23"/>
<stop offset="0.81" stop-color="#3A2512"/>
<stop offset="0.99"/>
</radialGradient>
<radialGradient id="paint48_radial_459_7391" cx="0" cy="0" r="1" gradientUnits="userSpaceOnUse" gradientTransform="translate(206.626 603.304) scale(10.2614 10.2614)">
<stop stop-color="#E0B447"/>
<stop offset="0.22" stop-color="#E3B94E"/>
<stop offset="0.54" stop-color="#EBC662"/>
<stop offset="0.92" stop-color="#F8DB82"/>
<stop offset="0.99" stop-color="#FBE089"/>
</radialGradient>
<radialGradient id="paint49_radial_459_7391" cx="0" cy="0" r="1" gradientUnits="userSpaceOnUse" gradientTransform="translate(199.135 595.115) rotate(-55.0691) scale(5.74951 4.95013)">
<stop offset="0.1" stop-color="white"/>
<stop offset="1"/>
</radialGradient>
<radialGradient id="paint50_radial_459_7391" cx="0" cy="0" r="1" gradientUnits="userSpaceOnUse" gradientTransform="translate(200.414 615.135) rotate(-60.6039) scale(7.82538 7.45184)">
<stop offset="0.1" stop-color="white"/>
<stop offset="1"/>
</radialGradient>
<radialGradient id="paint51_radial_459_7391" cx="0" cy="0" r="1" gradientUnits="userSpaceOnUse" gradientTransform="translate(109.363 537.275) rotate(-6) scale(18.609 18.9888)">
<stop stop-color="#DC8E43"/>
<stop offset="0.1" stop-color="#D58941"/>
<stop offset="0.24" stop-color="#C17D3B"/>
<stop offset="0.41" stop-color="#A06831"/>
<stop offset="0.6" stop-color="#734A23"/>
<stop offset="0.81" stop-color="#3A2512"/>
<stop offset="0.99"/>
</radialGradient>
<radialGradient id="paint52_radial_459_7391" cx="0" cy="0" r="1" gradientUnits="userSpaceOnUse" gradientTransform="translate(108.748 537.264) scale(10.2614 10.2614)">
<stop stop-color="#E0B447"/>
<stop offset="0.22" stop-color="#E3B94E"/>
<stop offset="0.54" stop-color="#EBC662"/>
<stop offset="0.92" stop-color="#F8DB82"/>
<stop offset="0.99" stop-color="#FBE089"/>
</radialGradient>
<radialGradient id="paint53_radial_459_7391" cx="0" cy="0" r="1" gradientUnits="userSpaceOnUse" gradientTransform="translate(101.467 529.212) rotate(-55.0691) scale(5.74951 4.95013)">
<stop offset="0.1" stop-color="white"/>
<stop offset="1"/>
</radialGradient>
<radialGradient id="paint54_radial_459_7391" cx="0" cy="0" r="1" gradientUnits="userSpaceOnUse" gradientTransform="translate(102.286 549.378) rotate(-60.604) scale(7.82541 7.45187)">
<stop offset="0.1" stop-color="white"/>
<stop offset="1"/>
</radialGradient>
<radialGradient id="paint55_radial_459_7391" cx="0" cy="0" r="1" gradientUnits="userSpaceOnUse" gradientTransform="translate(43.6351 438.526) rotate(-6) scale(18.609 18.9888)">
<stop stop-color="#DC8E43"/>
<stop offset="0.1" stop-color="#D58941"/>
<stop offset="0.24" stop-color="#C17D3B"/>
<stop offset="0.41" stop-color="#A06831"/>
<stop offset="0.6" stop-color="#734A23"/>
<stop offset="0.81" stop-color="#3A2512"/>
<stop offset="0.99"/>
</radialGradient>
<radialGradient id="paint56_radial_459_7391" cx="0" cy="0" r="1" gradientUnits="userSpaceOnUse" gradientTransform="translate(42.8365 438.538) scale(10.2614 10.2614)">
<stop stop-color="#E0B447"/>
<stop offset="0.22" stop-color="#E3B94E"/>
<stop offset="0.54" stop-color="#EBC662"/>
<stop offset="0.92" stop-color="#F8DB82"/>
<stop offset="0.99" stop-color="#FBE089"/>
</radialGradient>
<radialGradient id="paint57_radial_459_7391" cx="0" cy="0" r="1" gradientUnits="userSpaceOnUse" gradientTransform="translate(35.5879 430.52) rotate(-55.0691) scale(5.74951 4.95013)">
<stop offset="0.1" stop-color="white"/>
<stop offset="1"/>
</radialGradient>
<radialGradient id="paint58_radial_459_7391" cx="0" cy="0" r="1" gradientUnits="userSpaceOnUse" gradientTransform="translate(35.9894 451.091) rotate(-60.6039) scale(7.82537 7.45185)">
<stop offset="0.1" stop-color="white"/>
<stop offset="1"/>
</radialGradient>
</defs>
</svg>
