<svg width="577" height="658" viewBox="0 0 577 658" fill="none" xmlns="http://www.w3.org/2000/svg">
<g clip-path="url(#clip0_445_705)">
<path fill-rule="evenodd" clip-rule="evenodd" d="M0.944336 0.0584717H576.543V657.274C565.164 653.846 553.351 652.072 541.466 652.007C515.81 651.387 512.773 646.801 492.384 640.046C482.164 636.591 471.498 634.629 460.717 634.221C449.995 633.911 440.7 633.787 429.73 632.981C414.297 632.45 398.973 630.163 384.057 626.164C360.879 619.347 351.15 609.68 332.868 606.643C314.586 603.606 306.158 609.866 288.682 602.057C274.738 604.722 263.273 607.077 249.453 610.795C240.492 613.643 231.243 615.493 221.876 616.311C202.602 617.302 198.14 612.902 177.813 621.95C152.157 633.663 138.585 632.671 111.379 632.609C98.785 632.331 86.2288 634.089 74.1956 637.815C48.3532 645.5 29.1418 657.336 1.19228 657.274V0.368305L0.944336 0.0584717Z" fill="url(#paint0_radial_445_705)"/>
<mask id="mask0_445_705" style="mask-type:luminance" maskUnits="userSpaceOnUse" x="0" y="0" width="577" height="658">
<path d="M0.944336 0.0584717H576.543V657.274C565.164 653.846 553.351 652.072 541.466 652.007C515.81 651.387 512.773 646.801 492.384 640.046C482.164 636.591 471.498 634.629 460.717 634.221C449.995 633.911 440.7 633.787 429.73 632.981C414.297 632.45 398.973 630.163 384.057 626.164C360.879 619.347 351.15 609.68 332.868 606.643C314.586 603.606 306.158 609.866 288.682 602.057C274.738 604.722 263.273 607.077 249.453 610.795C240.492 613.643 231.243 615.493 221.876 616.311C202.602 617.302 198.14 612.902 177.813 621.95C152.157 633.663 138.585 632.671 111.379 632.609C98.785 632.331 86.2288 634.089 74.1956 637.815C48.3532 645.5 29.1418 657.336 1.19228 657.274V0.368305L0.944336 0.0584717Z" fill="white"/>
</mask>
<g mask="url(#mask0_445_705)">
<g style="mix-blend-mode:screen" opacity="0.55">
<path d="M148.748 604.102C148.748 610.299 147.942 615.629 147.013 615.629C146.083 615.629 145.277 610.423 145.277 604.102C145.277 597.781 146.021 592.575 147.013 592.575C148.004 592.575 148.748 597.719 148.748 604.102Z" fill="#FBE089"/>
</g>
<g style="mix-blend-mode:screen" opacity="0.65">
<path d="M235.386 614.142C235.682 618.149 235.39 622.179 234.518 626.102C233.361 618.171 233.361 610.113 234.518 602.181C235.39 606.104 235.682 610.134 235.386 614.142Z" fill="#FBE089"/>
</g>
<g style="mix-blend-mode:multiply" opacity="0.65">
<path d="M93.8408 656.469C94.7307 656.469 95.4521 651.114 95.4521 644.508C95.4521 637.902 94.7307 632.547 93.8408 632.547C92.9509 632.547 92.2295 637.902 92.2295 644.508C92.2295 651.114 92.9509 656.469 93.8408 656.469Z" fill="#FBE089"/>
</g>
<g style="mix-blend-mode:multiply" opacity="0.65">
<path d="M200.371 640.914C200.884 640.914 201.301 636.863 201.301 631.866C201.301 626.869 200.884 622.818 200.371 622.818C199.858 622.818 199.441 626.869 199.441 631.866C199.441 636.863 199.858 640.914 200.371 640.914Z" fill="#FBE089"/>
</g>
<g style="mix-blend-mode:multiply" opacity="0.65">
<path d="M93.8408 47.3433C94.7307 47.3433 95.4521 40.0461 95.4521 31.0446C95.4521 22.0431 94.7307 14.7459 93.8408 14.7459C92.9509 14.7459 92.2295 22.0431 92.2295 31.0446C92.2295 40.0461 92.9509 47.3433 93.8408 47.3433Z" fill="#FBE089"/>
</g>
</g>
<path fill-rule="evenodd" clip-rule="evenodd" d="M22.6348 0.0584717V632.485C38.0039 628.457 53.0632 621.33 67.8745 616.992C81.922 612.672 96.5599 610.581 111.255 610.795C134.557 610.795 146.889 611.911 168.703 602.057C178.582 597.165 189.413 594.499 200.433 594.249C207.188 594.249 213.757 594.868 220.574 594.249C228.409 593.496 236.138 591.896 243.628 589.477C257.138 585.82 270.648 583.279 284.406 580.367L291.099 579.065L297.296 581.854C301.161 583.674 305.43 584.463 309.69 584.147C318.512 583.436 327.385 583.685 336.152 584.891C356.479 588.299 370.609 599.33 389.82 604.97C403.272 608.519 417.07 610.597 430.97 611.167C441.01 611.911 451.049 611.973 461.151 612.406C473.977 612.863 486.669 615.18 498.83 619.285C517.421 625.482 521.264 629.635 541.529 630.13C546.052 630.13 550.329 630.44 554.419 630.874V0.0584717H532.728V607.758C523.489 605.496 514.436 602.534 505.647 598.896C491.645 594.165 477.035 591.472 462.266 590.902C452.474 590.53 442.621 590.468 432.891 589.724C420.514 589.27 408.219 587.525 396.204 584.519C388.444 581.936 380.883 578.788 373.584 575.099C362.977 569.835 351.695 566.06 340.057 563.882C329.795 562.428 319.407 562.075 309.071 562.829C308.349 562.892 307.623 562.892 306.902 562.829L306.034 562.519L293.639 556.941L280.191 559.482C265.938 562.209 251.808 565.183 237.802 569.026C231.749 570.961 225.523 572.31 219.211 573.054C213.014 573.364 206.321 572.62 199.937 573.054C185.925 573.351 172.143 576.67 159.531 582.784C141.498 590.902 130.405 589.601 111.069 589.601C94.2882 589.406 77.574 591.746 61.4914 596.542C55.2942 598.277 49.7786 600.384 44.0152 602.739V0.0584717H22.6348Z" fill="url(#paint1_linear_445_705)"/>
<path style="mix-blend-mode:multiply" fill-rule="evenodd" clip-rule="evenodd" d="M22.6348 0.0584717V632.485C38.0039 628.457 53.0632 621.33 67.8745 616.992C81.922 612.672 96.5599 610.581 111.255 610.795C134.557 610.795 146.889 611.911 168.703 602.057C178.582 597.165 189.413 594.499 200.433 594.249C207.188 594.249 213.757 594.868 220.574 594.249C228.409 593.496 236.138 591.896 243.628 589.477C257.138 585.82 270.648 583.279 284.406 580.367L291.099 579.065L297.296 581.854C301.161 583.674 305.43 584.463 309.69 584.147C318.512 583.436 327.385 583.685 336.152 584.891C356.479 588.299 370.609 599.33 389.82 604.97C403.272 608.519 417.07 610.597 430.97 611.167C441.01 611.911 451.049 611.973 461.151 612.406C473.977 612.863 486.669 615.18 498.83 619.285C517.421 625.482 521.264 629.635 541.529 630.13C546.052 630.13 550.329 630.44 554.419 630.874V0.0584717H532.728V607.758C523.489 605.496 514.436 602.534 505.647 598.896C491.645 594.165 477.035 591.472 462.266 590.902C452.474 590.53 442.621 590.468 432.891 589.724C420.514 589.27 408.219 587.525 396.204 584.519C388.444 581.936 380.883 578.788 373.584 575.099C362.977 569.835 351.695 566.06 340.057 563.882C329.795 562.428 319.407 562.075 309.071 562.829C308.349 562.892 307.623 562.892 306.902 562.829L306.034 562.519L293.639 556.941L280.191 559.482C265.938 562.209 251.808 565.183 237.802 569.026C231.749 570.961 225.523 572.31 219.211 573.054C213.014 573.364 206.321 572.62 199.937 573.054C185.925 573.351 172.143 576.67 159.531 582.784C141.498 590.902 130.405 589.601 111.069 589.601C94.2882 589.406 77.574 591.746 61.4914 596.542C55.2942 598.277 49.7786 600.384 44.0152 602.739V0.0584717H22.6348Z" fill="url(#paint2_radial_445_705)"/>
</g>
<defs>
<radialGradient id="paint0_radial_445_705" cx="0" cy="0" r="1" gradientUnits="userSpaceOnUse" gradientTransform="translate(278.89 517.837) scale(575.413 575.413)">
<stop stop-color="#FFFDA0"/>
<stop offset="0.78" stop-color="#E8B861"/>
<stop offset="0.81" stop-color="#E8B04D"/>
<stop offset="0.84" stop-color="#DBA544"/>
<stop offset="0.88" stop-color="#CF9733"/>
<stop offset="0.93" stop-color="#D58941"/>
<stop offset="0.99" stop-color="#AA6019"/>
</radialGradient>
<linearGradient id="paint1_linear_445_705" x1="22.6348" y1="316.303" x2="554.853" y2="316.303" gradientUnits="userSpaceOnUse">
<stop stop-color="#FFB554"/>
<stop offset="0.03" stop-color="#F1A346"/>
<stop offset="0.08" stop-color="#CE7323"/>
<stop offset="0.13" stop-color="#AB4500"/>
<stop offset="0.23" stop-color="#FFB554"/>
<stop offset="0.26" stop-color="#ED9E42"/>
<stop offset="0.31" stop-color="#C16216"/>
<stop offset="0.34" stop-color="#AB4500"/>
<stop offset="0.4" stop-color="#FFB554"/>
<stop offset="0.5" stop-color="#AB4500"/>
<stop offset="0.51" stop-color="#CD7222"/>
<stop offset="0.54" stop-color="#FFB554"/>
<stop offset="0.57" stop-color="#EE9F43"/>
<stop offset="0.62" stop-color="#C36518"/>
<stop offset="0.65" stop-color="#AF4B04"/>
<stop offset="0.69" stop-color="#DA842F"/>
<stop offset="0.71" stop-color="#F5A74A"/>
<stop offset="0.73" stop-color="#FFB554"/>
<stop offset="0.74" stop-color="#F2A347"/>
<stop offset="0.78" stop-color="#D37B28"/>
<stop offset="0.81" stop-color="#BD5D12"/>
<stop offset="0.84" stop-color="#B04B05"/>
<stop offset="0.86" stop-color="#AB4500"/>
<stop offset="1" stop-color="#FFB554"/>
</linearGradient>
<radialGradient id="paint2_radial_445_705" cx="0" cy="0" r="1" gradientUnits="userSpaceOnUse" gradientTransform="translate(286.637 522.98) scale(513.13 513.13)">
<stop offset="0.61" stop-color="white"/>
<stop offset="1" stop-color="#94602C"/>
</radialGradient>
<clipPath id="clip0_445_705">
<rect width="575.598" height="657.216" fill="white" transform="translate(0.944336 0.0584717)"/>
</clipPath>
</defs>
</svg>
