<svg width="824" height="334" viewBox="0 0 824 334" fill="none" xmlns="http://www.w3.org/2000/svg">
<g clip-path="url(#clip0_2_2016)">
<mask id="mask0_2_2016" style="mask-type:luminance" maskUnits="userSpaceOnUse" x="41" y="23" width="742" height="202">
<path d="M770.067 115.292C691.239 59.5174 560.229 23.2636 411.93 23.2636C263.63 23.2636 132.621 59.6414 53.792 115.292C39.0426 125.704 38.2989 134.938 46.7271 146.898C68.1199 177.56 94.9661 204.028 125.928 224.983C117.809 214.634 123.263 203.603 131.443 196.228C176.435 155.822 285.01 127.315 411.93 127.315C538.849 127.315 647.424 155.822 692.416 196.228C700.596 203.603 706.05 214.82 697.932 224.983C728.893 204.028 755.739 177.56 777.132 146.898C785.56 134.938 784.817 125.704 770.067 115.292Z" fill="white"/>
</mask>
<g mask="url(#mask0_2_2016)">
<g style="mix-blend-mode:multiply">
<path fill-rule="evenodd" clip-rule="evenodd" d="M202.03 137.169C199.365 128.617 196.762 120.002 194.097 111.45V110.954V110.397C196.266 102.154 198.497 93.974 200.666 85.6078C201.968 80.7739 203.331 75.8781 204.446 70.9203C204.818 69.433 205.128 67.8837 205.376 66.3963C205.591 65.4183 205.716 64.4226 205.748 63.4217C205.934 62.2516 205.934 61.0594 205.748 59.8893C205.46 58.7616 204.896 57.7233 204.106 56.8685C203.316 56.0137 202.325 55.3693 201.224 54.9935C198.566 54.1272 195.701 54.1272 193.043 54.9935C191.128 55.5853 189.28 56.3745 187.528 57.3484C185.997 58.2104 184.546 59.2059 183.19 60.3231C183.19 63.2977 182.632 66.5203 182.322 69.2471C182.012 71.9739 181.827 74.5767 181.579 77.2415L180.835 84.988C180.835 87.9007 180.215 90.8134 179.905 93.7261V94.9036L178.79 95.2754H177.984L176.931 95.6473L176.125 94.8416C173.026 91.805 169.928 88.6444 166.767 85.7937L157.162 76.7457C154.811 74.3552 151.889 72.6058 148.671 71.664C145.68 71.267 142.637 71.6956 139.871 72.9034C137.443 73.7766 135.299 75.2983 133.674 77.3035C132.596 78.736 131.701 80.2973 131.009 81.9514C133.798 84.6782 136.711 87.219 139.685 89.6979C142.66 92.1768 147.37 95.8951 151.274 98.9938L163.669 108.166L174.638 116.346L175.133 116.718V117.276L181.331 135.124C182.074 137.293 183.562 140.887 185.979 141.321C188.825 141.802 191.75 141.458 194.407 140.329C196.275 139.714 198.097 138.969 199.86 138.098C200.728 137.664 201.72 137.231 202.587 136.735L202.03 137.169ZM222.108 88.9543C223.631 95.0706 226.279 100.85 229.917 105.997C233.055 110.394 237.037 114.123 241.63 116.966C246.066 119.631 251.001 121.361 256.131 122.047C261.628 122.761 267.206 122.51 272.616 121.304C278.074 120.13 283.293 118.034 288.047 115.107C292.489 112.437 296.364 108.921 299.45 104.757C302.605 100.353 304.839 95.3575 306.019 90.0698C307.381 83.8172 307.57 77.3659 306.577 71.0443C305.853 64.7359 303.85 58.6415 300.689 53.1343C297.876 48.3807 293.993 44.349 289.348 41.3596C284.65 38.3879 279.365 36.4643 273.855 35.7201C261.524 34.1502 249.025 36.8161 238.407 43.2807C233.657 46.2994 229.602 50.2916 226.509 54.9935C223.4 59.5947 221.405 64.8567 220.683 70.3626C219.92 76.593 220.404 82.9131 222.108 88.9543ZM243.365 83.5007C241.272 76.5259 241.733 69.0334 244.666 62.3682C246.122 59.7208 248.152 57.4335 250.608 55.6746C253.064 53.9157 255.883 52.73 258.858 52.2047C261.792 51.4508 264.861 51.3944 267.821 52.0401C270.78 52.6858 273.547 54.0156 275.9 55.9231C281.002 60.8834 284.24 67.4483 285.072 74.5147C286.726 81.5255 286.029 88.8855 283.089 95.4613C281.709 98.0275 279.765 100.247 277.404 101.954C275.043 103.661 272.325 104.81 269.455 105.315C266.665 106.007 263.752 106.043 260.945 105.419C258.139 104.796 255.515 103.53 253.281 101.721C247.989 96.8065 244.498 90.2605 243.365 83.1289V83.5007ZM384.91 22.2721H382.989C380.782 22.3359 378.585 22.5846 376.419 23.0158L372.825 23.6975C373.755 40.8638 374.622 57.9681 375.49 75.1344C375.941 79.46 374.697 83.7921 372.019 87.219C369.297 90.1519 365.564 91.9429 361.572 92.2304C357.581 92.518 353.63 91.2807 350.515 88.7683C347.38 85.783 345.534 81.6915 345.371 77.3655C344.07 63.1738 342.83 48.9202 341.591 34.7285C341.509 32.9774 341.11 31.2556 340.414 29.6468C339.904 28.633 339.106 27.7922 338.121 27.2299C336.959 26.5809 335.668 26.1998 334.34 26.1144C332.444 25.9287 330.535 25.9287 328.639 26.1144C326.418 26.3416 324.221 26.7563 322.07 27.3538L318.537 28.2834C320.644 45.4497 322.689 62.6161 324.735 79.8444C325.262 84.1893 326.608 88.395 328.701 92.2388C330.627 95.8313 333.313 98.9611 336.571 101.411C339.993 103.892 343.867 105.681 347.974 106.678C352.758 107.832 357.7 108.188 362.6 107.732C367.512 107.464 372.347 106.396 376.915 104.571C380.848 102.999 384.429 100.66 387.451 97.6923C390.332 94.8176 392.553 91.3493 393.958 87.5289C395.508 83.327 396.245 78.8681 396.127 74.3908C396.127 59.9512 395.569 45.5737 395.321 31.0102C395.351 29.2569 395.056 27.5131 394.453 25.8665C394.061 24.8059 393.346 23.8954 392.408 23.2637C391.286 22.5383 390.015 22.0725 388.69 21.9003C387.418 21.7048 386.134 21.6012 384.848 21.5904L384.91 22.2721ZM487.226 47.061C486.048 50.8413 484.809 54.6836 483.569 58.4639C482.33 62.2442 481.276 65.2189 480.161 68.5654C479.045 71.9119 477.992 74.7626 477 77.9232C476.009 81.0838 474.831 84.6782 473.778 88.0247L473.344 89.512H471.857H471.175H469.688V88.0247C469.688 86.1655 469.316 84.3063 469.254 82.4472C469.254 79.2866 468.882 76.25 468.696 72.9654C468.324 67.6978 467.891 62.4921 467.457 57.2245C466.837 49.1681 466.093 41.1736 465.412 33.1792C465.376 31.8907 465.07 30.624 464.515 29.4606C463.96 28.2972 463.168 27.2629 462.189 26.4242C459.727 24.8452 456.872 23.9866 453.947 23.9454C451.426 23.7509 448.892 24.0887 446.51 24.9369C444.894 25.5123 443.354 26.2823 441.924 27.2299C441.924 31.1961 442.606 35.1004 443.102 39.0666C443.721 43.9624 444.403 48.7962 445.085 53.6301C445.766 58.4639 446.572 63.6076 447.44 68.5654C448.307 73.5232 449.051 77.8612 449.919 82.5092C450.786 87.1571 451.406 90.1317 452.273 93.912C452.786 96.4205 453.491 98.8859 454.381 101.287C455.474 103.316 457.286 104.864 459.462 105.625C462.664 107.009 466.082 107.827 469.564 108.042C472.356 108.321 475.174 108.196 477.93 107.67C479.755 107.342 481.501 106.669 483.074 105.687C484.809 101.163 486.42 96.5769 488.031 92.0529C490.077 86.2895 492.06 80.588 494.229 74.8246L496.77 67.3879L497.885 75.1344L500.302 92.5486C500.984 97.0726 501.665 101.659 502.471 106.183C502.732 107.135 503.201 108.018 503.844 108.768C504.487 109.518 505.288 110.117 506.189 110.521C509.211 112.086 512.483 113.114 515.857 113.557C518.82 113.929 521.818 113.929 524.781 113.557C526.933 113.482 529.045 112.954 530.978 112.008C531.665 111.185 532.228 110.266 532.651 109.281L535.006 104.447C536.866 100.543 538.539 96.5768 540.212 92.5486C541.885 88.5204 543.93 83.3768 545.728 78.7288C547.525 74.0809 549.198 69.433 550.809 64.7231C552.421 60.0132 553.598 56.7287 554.838 52.7005C555.769 49.9863 556.515 47.2118 557.069 44.3962C557.36 43.2922 557.34 42.1293 557.012 41.0357C556.684 39.9421 556.06 38.9605 555.209 38.199C552.818 36.3098 549.979 35.0716 546.967 34.6046C545.615 34.365 544.249 34.22 542.877 34.1708C541.454 34.0457 540.023 34.0457 538.601 34.1708C537.867 34.2502 537.154 34.4601 536.494 34.7905C535.417 37.334 534.647 39.9969 534.201 42.7229C533.829 44.6441 533.457 46.5652 532.899 48.4244C531.598 53.2582 530.235 58.0301 528.933 62.8639L524.843 77.6753C523.356 82.943 521.806 88.2726 520.195 93.5402L519.761 95.0895H518.15H517.468H515.981V93.6022C515.981 90.3796 515.423 87.405 515.051 83.9965C514.68 80.588 514.308 77.7993 513.874 74.7006L512.573 64.909C512.077 61.2526 511.519 57.5343 511.023 53.878C510.842 52.9526 510.452 52.0809 509.883 51.3292C509.313 50.5774 508.58 49.9655 507.739 49.5399C504.883 47.9998 501.739 47.0711 498.505 46.8131C496.349 46.4721 494.153 46.4721 491.998 46.8131C490.659 46.9653 489.334 47.2139 488.031 47.5568L487.226 47.061ZM578.573 124.65C584.274 101.142 589.997 77.6753 595.739 54.2498C596.244 52.5637 596.412 50.7951 596.235 49.0441C596.118 47.9237 595.664 46.8651 594.934 46.0075C594.007 45.0263 592.889 44.2459 591.649 43.7145C589.876 42.9307 588.028 42.3285 586.134 41.9173C583.971 41.4155 581.776 41.0635 579.565 40.8638H575.908L561.035 111.698C560.634 113.423 560.508 115.201 560.663 116.966C560.759 118.08 561.191 119.139 561.902 120.002C562.679 120.871 563.629 121.567 564.691 122.047C566.267 122.741 567.907 123.281 569.587 123.659C571.526 124.115 573.493 124.446 575.474 124.65H578.573ZM666.759 151.484L692.478 85.2979C693.346 83.0049 694.337 79.5345 692.478 77.4274C690.331 75.0895 687.622 73.34 684.607 72.3457C682.59 71.5586 680.519 70.9166 678.41 70.4245C677.357 70.4245 676.179 69.8668 675.002 69.6809C672.709 76.3119 670.354 82.9429 668.061 89.6359C666.388 94.3458 664.776 99.1177 663.165 103.89C661.554 108.661 660.19 113.433 658.889 118.267L658.393 119.94H656.782H656.1H654.551V118.329C654.551 115.169 654.551 112.132 653.993 108.785C653.435 105.439 653.435 102.588 653.002 99.8614C652.258 94.6557 651.452 89.3881 650.585 84.1824C649.717 78.9767 648.788 73.5851 647.858 68.2555C647.677 66.6329 647.166 65.0646 646.356 63.6471C645.546 62.2296 644.454 60.9929 643.148 60.0132C640.356 58.0182 637.258 56.4904 633.976 55.4892C631.127 54.6146 628.156 54.1962 625.176 54.2498C623.149 54.2268 621.155 54.7629 619.413 55.7991C613.339 78.1091 607.287 100.419 601.255 122.729C600.771 124.356 600.562 126.053 600.635 127.749C600.718 128.826 601.058 129.867 601.627 130.786C602.275 131.658 603.125 132.36 604.105 132.831C605.571 133.563 607.108 134.145 608.691 134.566C610.551 135.124 612.472 135.557 614.331 135.929C616.19 136.301 616.314 136.239 617.306 136.301C619.227 130.104 621.21 123.473 623.193 117.028C624.68 112.132 626.168 107.174 627.593 102.278C629.018 97.3825 630.32 92.4867 631.435 87.4669L631.807 85.7317H633.542H634.41H635.897V87.281C635.897 90.4416 636.455 93.4782 636.827 96.8247C637.199 100.171 637.571 103.022 638.066 105.811C638.872 111.078 639.616 116.346 640.359 121.614C641.103 126.881 641.723 131.963 642.342 137.169C642.495 140.313 643.874 143.273 646.185 145.411C648.544 147.322 651.203 148.83 654.055 149.873C656.591 150.923 659.261 151.611 661.988 151.918C663.526 152.105 665.086 151.979 666.574 151.546L666.759 151.484Z" fill="#5E3B66"/>
</g>
</g>
<path fill-rule="evenodd" clip-rule="evenodd" d="M823.859 242.955C813.076 241.716 743.791 231.552 743.791 215.192C743.846 213.987 744.163 212.808 744.719 211.738C745.276 210.668 746.059 209.731 747.014 208.995C714.292 230.809 699.109 244.133 677.481 277.164C676.016 279.102 675.005 281.345 674.523 283.726C674.04 286.107 674.098 288.566 674.692 290.922C676.257 295.137 679.325 298.624 683.306 300.713C711.149 315.835 741.075 326.757 772.113 333.125C776.194 315.883 777.45 298.093 775.831 280.449C795.387 273.285 812.191 260.145 823.859 242.893V242.955Z" fill="url(#paint0_radial_2_2016)"/>
<path style="mix-blend-mode:multiply" fill-rule="evenodd" clip-rule="evenodd" d="M743.791 215.192C743.791 225.603 772.051 233.783 795.228 238.245C783.487 252.367 770.063 264.999 755.256 275.863C737.23 289.492 717.147 300.162 695.763 307.468C691.631 305.361 687.5 303.13 683.368 300.775C679.387 298.686 676.319 295.199 674.754 290.984C674.16 288.628 674.102 286.169 674.585 283.788C675.068 281.407 676.078 279.164 677.543 277.226C699.171 244.319 714.354 230.995 747.076 209.056C746.121 209.793 745.338 210.73 744.781 211.8C744.225 212.87 743.908 214.049 743.853 215.254L743.791 215.192Z" fill="url(#paint1_radial_2_2016)"/>
<path fill-rule="evenodd" clip-rule="evenodd" d="M714.169 279.147C705.059 285.344 671.903 274.313 674.692 290.984C674.098 288.628 674.04 286.169 674.523 283.788C675.005 281.407 676.016 279.164 677.481 277.226C699.135 244.315 727.186 216.096 759.966 194.245C759.014 194.985 758.233 195.922 757.677 196.991C757.121 198.061 756.802 199.238 756.743 200.442C756.743 207.197 768.022 212.837 782.028 216.617C762.743 240.976 739.737 262.141 713.859 279.333L714.169 279.147Z" fill="#5B1500"/>
<path fill-rule="evenodd" clip-rule="evenodd" d="M735.425 149.501C754.592 155.462 773.145 163.244 790.828 172.741C792.84 173.812 794.6 175.3 795.989 177.106C797.378 178.913 798.366 180.995 798.885 183.214C799.487 185.425 799.599 187.74 799.214 189.999C798.828 192.257 797.955 194.404 796.654 196.29C774.966 229.173 746.921 257.387 714.169 279.271C725.324 271.71 718.693 260.246 709.954 254.482L707.847 253.181C700.163 248.595 685.909 249.4 674.63 247.789C667.008 246.674 661.306 245 658.456 237.006C652.94 221.451 709.769 178.752 735.425 149.625V149.501Z" fill="url(#paint2_radial_2_2016)"/>
<path style="mix-blend-mode:screen" fill-rule="evenodd" clip-rule="evenodd" d="M709.396 253.801C737.784 228.963 762.288 200.01 782.09 167.907C785.189 169.456 788.287 171.006 791.138 172.617C793.676 173.985 795.812 175.994 797.335 178.442C796.938 179.698 796.397 180.904 795.724 182.037C783.887 202.302 745.031 246.55 718.878 263.716C716.87 259.901 713.9 256.675 710.264 254.358L709.396 253.801Z" fill="url(#paint3_radial_2_2016)"/>
<path fill-rule="evenodd" clip-rule="evenodd" d="M697.932 224.983C688.822 231.181 655.667 220.15 658.455 236.882C657.847 234.521 657.777 232.054 658.249 229.662C658.721 227.271 659.723 225.015 661.182 223.062C682.887 190.193 710.929 161.983 743.667 140.081C742.727 140.827 741.958 141.767 741.412 142.836C740.867 143.905 740.558 145.079 740.507 146.279C740.507 153.034 751.786 158.673 765.791 162.515C746.506 186.856 723.499 208.001 697.622 225.169L697.932 224.983Z" fill="#5B1500"/>
<path fill-rule="evenodd" clip-rule="evenodd" d="M692.416 196.228C647.424 155.822 538.849 127.315 411.93 127.315C409.575 114.115 410.318 35.7201 411.93 23.2637C560.229 23.2637 691.239 59.6414 770.067 115.292C784.817 125.704 785.56 134.938 777.132 146.898C755.739 177.56 728.893 204.028 697.932 224.983C706.05 214.634 700.596 203.603 692.416 196.228Z" fill="url(#paint4_radial_2_2016)"/>
<path style="mix-blend-mode:screen" fill-rule="evenodd" clip-rule="evenodd" d="M766.349 112.69C746.141 144.2 721.655 172.753 693.594 197.53C697.593 201.158 700.401 205.91 701.65 211.164C727.988 193.254 767.465 147.952 779.178 127.935C779.611 127.129 779.983 126.324 780.355 125.456C777.659 121.398 774.158 117.939 770.068 115.292L766.349 112.69Z" fill="url(#paint5_radial_2_2016)"/>
<path fill-rule="evenodd" clip-rule="evenodd" d="M0 242.955C10.7832 241.716 80.0681 231.552 80.0681 215.192C80.0133 213.987 79.6966 212.808 79.1401 211.738C78.5836 210.668 77.8006 209.731 76.8456 208.995C109.567 230.809 124.75 244.133 146.378 277.164C147.843 279.102 148.854 281.345 149.337 283.726C149.819 286.107 149.761 288.566 149.167 290.922C147.602 295.137 144.534 298.624 140.553 300.713C112.71 315.835 82.7845 326.757 51.7469 333.125C47.6654 315.883 46.4095 298.093 48.0285 280.449C28.4722 273.285 11.6681 260.145 0 242.893V242.955Z" fill="url(#paint6_radial_2_2016)"/>
<path style="mix-blend-mode:multiply" fill-rule="evenodd" clip-rule="evenodd" d="M80.0681 215.192C80.0681 225.603 51.8087 233.783 28.6311 238.245C40.3724 252.367 53.7961 264.999 68.6033 275.863C86.6288 289.492 106.712 300.162 128.097 307.468C132.228 305.361 136.36 303.13 140.491 300.775C144.472 298.686 147.54 295.199 149.105 290.984C149.699 288.628 149.757 286.169 149.274 283.788C148.792 281.407 147.781 279.164 146.316 277.226C124.688 244.319 109.505 230.995 76.7836 209.056C77.7386 209.793 78.5216 210.73 79.0781 211.8C79.6347 212.87 79.9514 214.049 80.0062 215.254L80.0681 215.192Z" fill="url(#paint7_radial_2_2016)"/>
<path fill-rule="evenodd" clip-rule="evenodd" d="M109.691 279.147C118.801 285.344 151.956 274.313 149.167 290.984C149.761 288.628 149.819 286.169 149.337 283.788C148.854 281.407 147.843 279.164 146.378 277.226C124.725 244.315 96.6736 216.096 63.8934 194.245C64.8454 194.985 65.6262 195.922 66.1824 196.991C66.7386 198.061 67.0571 199.238 67.116 200.442C67.116 207.197 55.837 212.837 41.8313 216.617C61.023 240.951 83.9227 262.115 109.691 279.333V279.147Z" fill="#5B1500"/>
<path fill-rule="evenodd" clip-rule="evenodd" d="M88.4344 149.501C69.2673 155.462 50.7149 163.244 33.0312 172.741C31.0195 173.812 29.2599 175.3 27.8705 177.106C26.481 178.913 25.4937 180.995 24.9748 183.214C24.3726 185.425 24.2603 187.74 24.6456 189.999C25.031 192.257 25.9047 194.404 27.2058 196.29C48.8936 229.173 76.9385 257.387 109.691 279.271C98.5358 271.71 105.167 260.246 113.905 254.482L116.012 253.181C123.697 248.595 137.95 249.4 149.229 247.789C156.852 246.674 162.553 245 165.404 237.006C170.919 221.451 114.091 178.752 88.4344 149.625V149.501Z" fill="url(#paint8_radial_2_2016)"/>
<path style="mix-blend-mode:screen" fill-rule="evenodd" clip-rule="evenodd" d="M114.773 253.801C86.3848 228.963 61.8813 200.01 42.0792 167.907C38.9806 169.456 35.8819 171.006 33.0312 172.617C30.4932 173.985 28.3568 175.994 26.834 178.442C27.2314 179.698 27.772 180.904 28.4452 182.037C40.2819 202.302 79.1386 246.55 105.291 263.716C107.3 259.901 110.269 256.675 113.905 254.358L114.773 253.801Z" fill="url(#paint9_radial_2_2016)"/>
<path fill-rule="evenodd" clip-rule="evenodd" d="M125.928 224.983C135.037 231.181 168.193 220.15 165.404 236.882C166.012 234.521 166.082 232.054 165.61 229.662C165.139 227.271 164.136 225.015 162.677 223.062C140.972 190.193 112.93 161.983 80.192 140.081C81.1326 140.827 81.9016 141.767 82.4469 142.836C82.9923 143.905 83.3012 145.079 83.3526 146.279C83.3526 153.034 72.0736 158.673 58.0679 162.515C77.2599 186.831 100.16 207.975 125.928 225.169V224.983Z" fill="#5B1500"/>
<path fill-rule="evenodd" clip-rule="evenodd" d="M131.443 196.228C176.435 155.822 285.072 127.315 411.93 127.315C414.285 114.115 413.541 35.7201 411.93 23.2637C263.63 23.2637 132.621 59.6414 53.792 115.292C39.0426 125.704 38.2989 134.938 46.7271 146.898C68.1199 177.56 94.9661 204.028 125.928 224.983C117.809 214.634 123.263 203.603 131.443 196.228Z" fill="url(#paint10_radial_2_2016)"/>
<path style="mix-blend-mode:screen" fill-rule="evenodd" clip-rule="evenodd" d="M57.5103 112.69C77.7189 144.2 102.204 172.753 130.266 197.53C126.267 201.158 123.459 205.91 122.209 211.164C95.8712 193.254 56.3949 147.952 44.6821 127.935C44.2483 127.129 43.8765 126.324 43.5046 125.456C46.2003 121.398 49.7021 117.939 53.7921 115.292L57.5103 112.69Z" fill="url(#paint11_radial_2_2016)"/>
<g style="mix-blend-mode:screen">
<path fill-rule="evenodd" clip-rule="evenodd" d="M50.6313 119.754C130.142 64.7851 262.329 28.8412 411.93 28.8412C561.531 28.8412 693.717 64.7851 773.228 119.754C775.881 121.576 778.351 123.651 780.602 125.952C777.907 121.692 774.311 118.075 770.067 115.354C691.239 59.5794 560.229 23.3256 411.93 23.3256C263.63 23.3256 132.621 59.7033 53.792 115.354C49.5486 118.075 45.9525 121.692 43.2566 125.952C45.5078 123.651 47.9777 121.576 50.6313 119.754Z" fill="#FF3939"/>
</g>
<g style="mix-blend-mode:screen">
<path d="M264.931 20.5369C264.931 20.8467 264.498 20.9707 264.002 20.8467C263.506 20.7228 263.258 20.4749 263.32 20.165C263.382 19.8552 263.816 19.7932 264.25 19.8552C264.684 19.9172 264.993 20.289 264.931 20.5369Z" fill="#FFCC00"/>
</g>
<g style="mix-blend-mode:screen">
<path d="M368.547 72.1594C368.547 72.1594 368.547 72.5921 368.547 72.7775C368.547 72.9629 367.991 72.7775 367.867 72.7775C367.744 72.7775 367.867 72.4066 368.176 72.1594C368.485 71.9121 368.176 72.0357 368.547 72.1594Z" fill="#FFCC00"/>
</g>
<g style="mix-blend-mode:screen">
<path d="M539.84 32.4356C540.15 32.4356 540.274 32.8694 540.15 33.3032C540.026 33.737 539.716 34.0468 539.407 33.9849C539.097 33.9229 539.035 33.4891 539.407 33.0553C539.778 32.6215 539.592 32.3116 539.84 32.4356Z" fill="#FFCC00"/>
</g>
</g>
<defs>
<radialGradient id="paint0_radial_2_2016" cx="0" cy="0" r="1" gradientUnits="userSpaceOnUse" gradientTransform="translate(715.222 230.375) scale(197.258 197.258)">
<stop offset="0.11" stop-color="#7D0000"/>
<stop offset="0.18" stop-color="#890404"/>
<stop offset="0.32" stop-color="#A80D0D"/>
<stop offset="0.5" stop-color="#D91D1D"/>
<stop offset="0.63" stop-color="#FF2929"/>
</radialGradient>
<radialGradient id="paint1_radial_2_2016" cx="0" cy="0" r="1" gradientUnits="userSpaceOnUse" gradientTransform="translate(617.244 86.7852) scale(232.954 232.954)">
<stop offset="0.83" stop-color="#990000"/>
<stop offset="0.85" stop-color="#9B0404"/>
<stop offset="0.87" stop-color="#9F1010"/>
<stop offset="0.9" stop-color="#A82424"/>
<stop offset="0.92" stop-color="#B34141"/>
<stop offset="0.94" stop-color="#C26666"/>
<stop offset="0.96" stop-color="#D49393"/>
<stop offset="0.98" stop-color="#E8C7C7"/>
<stop offset="1" stop-color="white"/>
</radialGradient>
<radialGradient id="paint2_radial_2_2016" cx="0" cy="0" r="1" gradientUnits="userSpaceOnUse" gradientTransform="translate(538.353 13.4101) scale(331.675 331.676)">
<stop offset="0.48" stop-color="#330000"/>
<stop offset="0.75" stop-color="#590000"/>
<stop offset="0.77" stop-color="#5E0000"/>
<stop offset="0.79" stop-color="#6B0000"/>
<stop offset="0.8" stop-color="#820000"/>
<stop offset="0.82" stop-color="#A20000"/>
<stop offset="0.84" stop-color="#CB0000"/>
<stop offset="0.86" stop-color="#FF0000"/>
<stop offset="0.87" stop-color="#FF0707"/>
<stop offset="0.88" stop-color="#FF1919"/>
<stop offset="0.89" stop-color="#FF3737"/>
<stop offset="0.9" stop-color="#FF4747"/>
<stop offset="0.95" stop-color="#7B0909"/>
<stop offset="0.96" stop-color="#690000"/>
</radialGradient>
<radialGradient id="paint3_radial_2_2016" cx="0" cy="0" r="1" gradientUnits="userSpaceOnUse" gradientTransform="translate(539.469 21.2186) scale(313.394 313.394)">
<stop offset="0.88"/>
<stop offset="0.9" stop-color="#4E1310"/>
<stop offset="0.91" stop-color="#98251E"/>
<stop offset="0.92" stop-color="#CE3329"/>
<stop offset="0.93" stop-color="#FC3E32"/>
<stop offset="0.94" stop-color="#E8392E"/>
<stop offset="0.95" stop-color="#AC2A22"/>
<stop offset="0.96" stop-color="#48120E"/>
<stop offset="0.97"/>
</radialGradient>
<radialGradient id="paint4_radial_2_2016" cx="0" cy="0" r="1" gradientUnits="userSpaceOnUse" gradientTransform="translate(425.626 -126.213) scale(449.671 449.671)">
<stop stop-color="#ED3B00"/>
<stop offset="0.87" stop-color="#D90000"/>
<stop offset="0.93" stop-color="#FF424C"/>
<stop offset="0.94" stop-color="#FB404A"/>
<stop offset="0.95" stop-color="#EE3942"/>
<stop offset="0.96" stop-color="#D92F36"/>
<stop offset="0.97" stop-color="#BB2024"/>
<stop offset="0.98" stop-color="#7D0000"/>
</radialGradient>
<radialGradient id="paint5_radial_2_2016" cx="0" cy="0" r="1" gradientUnits="userSpaceOnUse" gradientTransform="translate(317.917 -229.087) scale(617.492 617.492)">
<stop offset="0.88"/>
<stop offset="0.9" stop-color="#4E1310"/>
<stop offset="0.91" stop-color="#98251E"/>
<stop offset="0.92" stop-color="#CE3329"/>
<stop offset="0.93" stop-color="#FC3E32"/>
<stop offset="0.94" stop-color="#E8392E"/>
<stop offset="0.95" stop-color="#AC2A22"/>
<stop offset="0.96" stop-color="#48120E"/>
<stop offset="0.97"/>
</radialGradient>
<radialGradient id="paint6_radial_2_2016" cx="0" cy="0" r="1" gradientUnits="userSpaceOnUse" gradientTransform="translate(108.575 230.375) rotate(180) scale(197.258 197.258)">
<stop offset="0.11" stop-color="#7D0000"/>
<stop offset="0.18" stop-color="#890404"/>
<stop offset="0.32" stop-color="#A80D0D"/>
<stop offset="0.5" stop-color="#D91D1D"/>
<stop offset="0.63" stop-color="#FF2929"/>
</radialGradient>
<radialGradient id="paint7_radial_2_2016" cx="0" cy="0" r="1" gradientUnits="userSpaceOnUse" gradientTransform="translate(206.553 86.7852) rotate(180) scale(232.954 232.954)">
<stop offset="0.83" stop-color="#990000"/>
<stop offset="0.85" stop-color="#9B0404"/>
<stop offset="0.87" stop-color="#9F1010"/>
<stop offset="0.9" stop-color="#A82424"/>
<stop offset="0.92" stop-color="#B34141"/>
<stop offset="0.94" stop-color="#C26666"/>
<stop offset="0.96" stop-color="#D49393"/>
<stop offset="0.98" stop-color="#E8C7C7"/>
<stop offset="1" stop-color="white"/>
</radialGradient>
<radialGradient id="paint8_radial_2_2016" cx="0" cy="0" r="1" gradientUnits="userSpaceOnUse" gradientTransform="translate(285.506 13.4101) rotate(180) scale(331.676 331.676)">
<stop offset="0.48" stop-color="#330000"/>
<stop offset="0.75" stop-color="#590000"/>
<stop offset="0.77" stop-color="#5E0000"/>
<stop offset="0.79" stop-color="#6B0000"/>
<stop offset="0.8" stop-color="#820000"/>
<stop offset="0.82" stop-color="#A20000"/>
<stop offset="0.84" stop-color="#CB0000"/>
<stop offset="0.86" stop-color="#FF0000"/>
<stop offset="0.87" stop-color="#FF0707"/>
<stop offset="0.88" stop-color="#FF1919"/>
<stop offset="0.89" stop-color="#FF3737"/>
<stop offset="0.9" stop-color="#FF4747"/>
<stop offset="0.95" stop-color="#7B0909"/>
<stop offset="0.96" stop-color="#690000"/>
</radialGradient>
<radialGradient id="paint9_radial_2_2016" cx="0" cy="0" r="1" gradientUnits="userSpaceOnUse" gradientTransform="translate(284.391 21.2186) rotate(180) scale(313.394 313.394)">
<stop offset="0.88"/>
<stop offset="0.9" stop-color="#4E1310"/>
<stop offset="0.91" stop-color="#98251E"/>
<stop offset="0.92" stop-color="#CE3329"/>
<stop offset="0.93" stop-color="#FC3E32"/>
<stop offset="0.94" stop-color="#E8392E"/>
<stop offset="0.95" stop-color="#AC2A22"/>
<stop offset="0.96" stop-color="#48120E"/>
<stop offset="0.97"/>
</radialGradient>
<radialGradient id="paint10_radial_2_2016" cx="0" cy="0" r="1" gradientUnits="userSpaceOnUse" gradientTransform="translate(398.234 -126.213) rotate(180) scale(449.671 449.671)">
<stop stop-color="#ED3B00"/>
<stop offset="0.87" stop-color="#D90000"/>
<stop offset="0.93" stop-color="#FF424C"/>
<stop offset="0.94" stop-color="#FB404A"/>
<stop offset="0.95" stop-color="#EE3942"/>
<stop offset="0.96" stop-color="#D92F36"/>
<stop offset="0.97" stop-color="#BB2024"/>
<stop offset="0.98" stop-color="#7D0000"/>
</radialGradient>
<radialGradient id="paint11_radial_2_2016" cx="0" cy="0" r="1" gradientUnits="userSpaceOnUse" gradientTransform="translate(505.942 -229.087) rotate(180) scale(617.492 617.492)">
<stop offset="0.88"/>
<stop offset="0.9" stop-color="#4E1310"/>
<stop offset="0.91" stop-color="#98251E"/>
<stop offset="0.92" stop-color="#CE3329"/>
<stop offset="0.93" stop-color="#FC3E32"/>
<stop offset="0.94" stop-color="#E8392E"/>
<stop offset="0.95" stop-color="#AC2A22"/>
<stop offset="0.96" stop-color="#48120E"/>
<stop offset="0.97"/>
</radialGradient>
<clipPath id="clip0_2_2016">
<rect width="823.859" height="332.419" fill="white" transform="translate(0 0.70575)"/>
</clipPath>
</defs>
</svg>
